<?xml version="1.0" encoding="utf-8" ?>
<svg baseProfile="full" height="200mm" version="1.1" viewBox="0,0,200,200" width="200mm" xmlns="http://www.w3.org/2000/svg" xmlns:ev="http://www.w3.org/2001/xml-events" xmlns:xlink="http://www.w3.org/1999/xlink"><defs /><rect fill="#1a1a1a" height="200" width="200" x="0" y="0" /><text alignment-baseline="middle" fill="#e1ed5e" style="dominant-baseline: central; font-size:9.0px; font-family:Arial;" text-anchor="middle" x="100.0" y="100.0">2019</text><line stroke="#e1ed5e" stroke-width="0.3" x1="100.0" x2="100.0" y1="15.0" y2="10.0" /><path d="M 100.0 14.0 a86.0,86.0 0 0,1 42.46469731375804,11.215312516191453" fill="none" id="id1" stroke="none" /><text fill="#e1ed5e" style="font-size:6.75px; font-family:Arial;" text-anchor="middle"><textPath startOffset="22.20632615414155" xlink:href="#id1">January</textPath></text><line stroke="#e1ed5e" stroke-width="0.3" x1="143.23703022742887" x2="145.7803849466894" y1="26.81831364943548" y2="22.513508569990506" /><path d="M 143.74570117128098 25.957352633546492 a86.0,86.0 0 0,1 28.547481713284135,27.462654790039103" fill="none" id="id2" stroke="none" /><text fill="#e1ed5e" style="font-size:6.75px; font-family:Arial;" text-anchor="middle"><textPath startOffset="19.985693538727396" xlink:href="#id2">February</textPath></text><line stroke="#e1ed5e" stroke-width="0.3" x1="172.23445277983987" x2="176.4835382374775" y1="55.19839476539836" y2="52.563006222186495" /><path d="M 173.08426987136738 54.67131705675599 a86.0,86.0 0 0,1 12.851231095245387,41.99856678651699" fill="none" id="id3" stroke="none" /><text fill="#e1ed5e" style="font-size:6.75px; font-family:Arial;" text-anchor="middle"><textPath startOffset="22.20632615414155" xlink:href="#id3">March</textPath></text><line stroke="#e1ed5e" stroke-width="0.3" x1="184.98032266829074" x2="189.97916517819016" y1="98.17113171792111" y2="98.06355123074" /><path d="M 185.9800911702706 98.14961562048488 a86.0,86.0 0 0,1 -9.607161424134198,41.387399972396054" fill="none" id="id4" stroke="none" /><text fill="#e1ed5e" style="font-size:6.75px; font-family:Arial;" text-anchor="middle"><textPath startOffset="21.466115282336823" xlink:href="#id4">April</textPath></text><line stroke="#e1ed5e" stroke-width="0.3" x1="174.80103733775053" x2="179.2010983576182" y1="140.37084112569926" y2="142.7455964860345" /><path d="M 175.68104954172406 140.8457921977663 a86.0,86.0 0 0,1 -30.038265399797805,32.042727171017184" fill="none" id="id5" stroke="none" /><text fill="#e1ed5e" style="font-size:6.75px; font-family:Arial;" text-anchor="middle"><textPath startOffset="22.206326154141568" xlink:href="#id5">May</textPath></text><line stroke="#e1ed5e" stroke-width="0.3" x1="143.8653032363475" x2="146.44561519142675" y1="172.8068346515853" y2="177.08958963109032" /><path d="M 144.38136562736335 173.6633856474863 a86.0,86.0 0 0,1 -40.68145358897372,12.25698825130547" fill="none" id="id6" stroke="none" /><text fill="#e1ed5e" style="font-size:6.75px; font-family:Arial;" text-anchor="middle"><textPath startOffset="21.466115282336833" xlink:href="#id6">June</textPath></text><line stroke="#e1ed5e" stroke-width="0.3" x1="102.19456741930631" x2="102.32365962044197" y1="184.97166512339345" y2="189.96999836594603" /><path d="M 102.22038585953345 185.97133177190398 a86.0,86.0 0 0,1 -42.740103519485714,-10.115201625700543" fill="none" id="id7" stroke="none" /><text fill="#e1ed5e" style="font-size:6.75px; font-family:Arial;" text-anchor="middle"><textPath startOffset="22.20632615414155" xlink:href="#id7">July</textPath></text><line stroke="#e1ed5e" stroke-width="0.3" x1="58.666819895761336" x2="56.23545636021788" y1="174.27360380694188" y2="178.64263932499728" /><path d="M 58.180547188652646 175.14741091055294 a86.0,86.0 0 0,1 -31.652253787137756,-30.449443065178592" fill="none" id="id8" stroke="none" /><text fill="#e1ed5e" style="font-size:6.75px; font-family:Arial;" text-anchor="middle"><textPath startOffset="22.20632615414155" xlink:href="#id8">August</textPath></text><path d="M 89.4739219176387 118.17145234162733 l -11.01672811548221 19.018474720096577 a42.97886892106618,42.97886892106618 0 0,0 -0.6369716607188347,-0.3763340846859737 l 11.342467647229425 -18.826022063116856" fill="#feff18" stroke="none" /><line stroke="#e1ed5e" stroke-width="0.3" x1="26.63291911575756" x2="22.317208475507996" y1="142.92168965132927" y2="145.44649492493687" /><path d="M 25.769776987707644 143.4266507060508 a86.0,86.0 0 0,1 -11.730757126820373,-40.83630448921669" fill="none" id="id9" stroke="none" /><text fill="#e1ed5e" style="font-size:6.75px; font-family:Arial;" text-anchor="middle"><textPath startOffset="21.46611528233685" xlink:href="#id9">September</textPath></text><path d="M 81.02952815118164 109.00673069616217 l -22.14301505176983 10.512979063553376 a45.51195309177987,45.51195309177987 0 0,0 -0.32990830941733457,-0.7105931484639029 l 22.320697978026992 -10.130265847810646" fill="#deff1b" stroke="none" /><path d="M 80.87730276802145 108.67885076344099 l -36.120212853175374 16.393186227526634 a60.666186245328205,60.666186245328205 0 0,0 -0.42338906902883094,-0.9546305792101257 l 36.39704300693549 -15.769007311823813" fill="#34ff2f" stroke="none" /><path d="M 80.73074385275274 108.34839909993369 l -55.355890037185496 23.98292176050015 a81.32789651545332,81.32789651545332 0 0,0 -0.5454740202807251,-1.2893394535228975 l 55.76051503865853 -23.026507781311096" fill="#4aecff" stroke="none" /><line stroke="#e1ed5e" stroke-width="0.3" x1="15.007084014347285" x2="10.007500721073583" y1="101.09737516637583" y2="101.16192664675087" /><path d="M 14.007167355692545 101.11028546245083 a86.0,86.0 0 0,1 10.666146001902534,-42.60595125391555" fill="none" id="id10" stroke="none" /><text fill="#e1ed5e" style="font-size:6.75px; font-family:Arial;" text-anchor="middle"><textPath startOffset="22.20632615414155" xlink:href="#id10">October</textPath></text><path d="M 79.00175016825051 100.2711162175752 l -53.28253614178594 0.6879506519506706 a74.28697715014658,74.28697715014658 0 0,0 -0.005503259605100512,-1.2787637206037206 l 53.28648369868054 0.22932254685672526" fill="#40ffca" stroke="none" /><path d="M 79.01574976396665 99.18683210126434 l -55.41498899025487 -2.147405299155589 a76.45658080254236,76.45658080254236 0 0,0 0.06228077258740209,-1.314648673970405 l 55.36981460943397 3.1009650797490034" fill="#43ffe1" stroke="none" /><path d="M 79.03285615573316 98.82574320788736 l -62.90143153280056 -3.522770376337934 a84.0,84.0 0 0,0 0.09327763598234728,-1.442963742987953 l 62.831473305813795 4.604993183578899" fill="#4dd2ff" stroke="none" /><path d="M 79.16333360222342 97.38593545837743 l -13.164270358060847 -1.6515238907415557 a34.26746189826108,34.26746189826108 0 0,0 0.07846269858102992,-0.5846382410545283 l 13.133891660421982 1.8778804738607433" fill="#ff8d0d" stroke="none" /><path d="M 79.3925641242962 95.95851677861259 l -25.56903014282993 -5.014539748306599 a47.056110825146035,47.056110825146035 0 0,0 0.1627260904582929,-0.7935102080693834 l 25.478924756456646 5.4539256125393845" fill="#cbff1d" stroke="none" /><line stroke="#e1ed5e" stroke-width="0.3" x1="26.266209847984243" x2="21.928928074336255" y1="57.711370442889674" y2="55.22380399835377" /><path d="M 25.398753493254645 57.213857153982495 a86.0,86.0 0 0,1 29.58750427330803,-30.492523968695096" fill="none" id="id11" stroke="none" /><text fill="#e1ed5e" style="font-size:6.75px; font-family:Arial;" text-anchor="middle"><textPath startOffset="21.46611528233685" xlink:href="#id11">November</textPath></text><path d="M 86.37877921826538 84.01681056812374 l -3.860387429035081 -4.529792486840817 a26.95160575610411,26.95160575610411 0 0,0 0.3556873524835101,-0.2978779286842871 l 3.7818425395924606 4.595571572918916" fill="#ff2303" stroke="none" /><path d="M 86.65592168130627 83.78471172551755 l -10.09285723148036 -12.264510565138053 a36.88345008168655,36.88345008168655 0 0,0 0.4937053555799041,-0.39920872930618734 l 9.880248477335957 12.436425391708378" fill="#ffb110" stroke="none" /><path d="M 88.70189139769569 82.29822771554957 l -3.9054746961813676 -6.119061709177193 a28.259176868160154,28.259176868160154 0 0,0 0.41228907438712536,-0.2581753805577467 l 3.799566469422 6.18538143105787" fill="#ff3705" stroke="none" /><line stroke="#e1ed5e" stroke-width="0.3" x1="56.76296977257108" x2="54.21961505331056" y1="26.818313649435495" y2="22.513508569990535" /><path d="M 56.25429882871898 25.957352633546506 a86.0,86.0 0 0,1 42.26535254187918,-11.944610805530505" fill="none" id="id12" stroke="none" /><text fill="#e1ed5e" style="font-size:6.75px; font-family:Arial;" text-anchor="middle"><textPath startOffset="22.20632615414155" xlink:href="#id12">December</textPath></text><path d="M 89.63071344664047 81.73862282372117 l -2.5196510010911606 -4.437363848200992 a26.102826578340753,26.102826578340753 0 0,0 0.39263114872513355,-0.21849880917281317 l 2.4428957632939814 4.48007805493399" fill="#ff1702" stroke="none" /><path d="M 89.94658935756843 81.56283822128135 l -6.042981097927266 -11.082350467012883 a33.6228409014614,33.6228409014614 0 0,0 0.5105147319629366,-0.2726992895698082 l 5.851321319436024 11.184728483084442" fill="#ff840c" stroke="none" /><path d="M 90.26544431104013 81.39251694778311 l -5.857857063917568 -11.19722147799451 a33.63694022335116,33.63694022335116 0 0,0 0.5153491784031858,-0.26398186544879626 l 5.664247397925618 11.29639586875581" fill="#ff840c" stroke="none" /><path d="M 90.58718382345135 81.22770947309562 l -1.676245124097148 -3.342991074473148 a24.739704138039077,24.739704138039077 0 0,0 0.3823211827835592,-0.187603343989225 l 1.6184526743031629 3.3713495785972025" fill="#ff0200" stroke="none" /><path d="M 90.91171255644093 81.06846463323043 l -3.2931643353997004 -6.859890542787322 a28.609404023901707,28.609404023901707 0 0,0 0.4457914456358712,-0.20930506113672265 l 3.1745946784642207 6.915560586564053" fill="#ff3c05" stroke="none" /><path d="M 91.23893434514133 80.91482961587045 l -4.581721858346027 -9.980856868790942 a31.98224380636931,31.98224380636931 0 0,0 0.5023007570902787,-0.22536770799077718 l 4.409238982788974 10.05824490729825" fill="#ff6d0a" stroke="none" /><path d="M 91.56875222667455 80.76684994638697 l -4.371199022376683 -9.971469107759086 a31.887496363270145,31.887496363270145 0 0,0 0.5046063316627213,-0.2160460968881436 l 4.198908932923652 10.045234732610014" fill="#ff6b09" stroke="none" /><path d="M 92.23578459929587 80.48803036053334 l -3.249908768042647 -8.167228488706504 a29.790081238949934,29.790081238949934 0 0,0 0.47808375683587584,-0.18548907017551924 l 3.1088418462070933 8.221960262772576" fill="#ff4d07" stroke="none" /><path d="M 92.91201910852362 80.23233633223022 l -3.208127098569851 -8.947142840671166 a30.504916858760602,30.504916858760602 0 0,0 0.4958036708784891,-0.17297616540923266 l 3.0536414236280764 9.001039859252607" fill="#ff5708" stroke="none" /><path d="M 93.25333710446033 80.11325718540243 l -3.6326256802634074 -10.707677819927945 a32.30709218270931,32.30709218270931 0 0,0 0.5281704623677181,-0.17412949734164218 l 3.4477723956532795 10.76862104152882" fill="#ff710a" stroke="none" /><path d="M 93.59665428221793 80.00007090966166 l -5.229697557195465 -16.33420791530415 a38.15097911957568,38.15097911957568 0 0,0 0.6271560017850042,-0.19486042259358494 l 4.947756182699732 16.42180847278026" fill="#ffc212" stroke="none" /><path d="M 93.94186890950719 79.89281104454417 l -1.9037090228459947 -6.3184893933116895 a27.59904661728174,27.59904661728174 0 0,0 0.4560542456049563,-0.1331347401229225 l 1.7946645595176172 6.3503224623533105" fill="#ff2d04" stroke="none" /><path d="M 94.28887869178378 79.79150937346287 l -1.107688868373321 -3.9194965236403383 a25.073012107512923,25.073012107512923 0 0,0 0.41633391644804374,-0.1137997864700581 l 1.0400570627015548 3.9379828509366925" fill="#ff0701" stroke="none" /><path d="M 95.33964822691252 79.52364482259891 l -0.8024486823127472 -3.525747632519941 a24.61591209184701,24.61591209184701 0 0,0 0.4139661169920521,-0.09047695931187096 l 0.7416398411671742 3.53903808992768" fill="#ff0000" stroke="none" /><path d="M 95.692805502759 79.44645832069477 l -5.459783280525714 -26.053590867127266 a47.619519727860705,47.619519727860705 0 0,0 0.8037122550760095,-0.16121711743591038 l 5.010504615982568 26.143711940640387" fill="#c4ff1e" stroke="none" /><path d="M 96.04723909329186 79.375362276772 l -1.098383289440077 -5.731122615461993 a26.835427343732515,26.835427343732515 0 0,0 0.4544194709866718,-0.08304225374665473 l 0.9995686973505119 5.749180350559384" fill="#ff2203" stroke="none" /><path d="M 96.75951476605007 79.25152402106235 l -1.7061010076039087 -10.92397996542085 a32.056406239509435,32.056406239509435 0 0,0 0.5459221546299612,-0.08045473460947039 l 1.5178098725452989 10.951729184191288" fill="#ff6e0a" stroke="none" /><path d="M 97.11714578562143 79.19881850522333 l -1.7536744840737357 -12.6536059451206 a33.77454960499519,33.77454960499519 0 0,0 0.5765561230795965,-0.07485353204726287 l 1.5356036324862816 12.681917800332" fill="#ff860c" stroke="none" /><path d="M 97.47563105711357 79.15227682838746 l -1.8443378580102108 -15.23162658416988 a36.34288208043327,36.34288208043327 0 0,0 0.621693968271983,-0.06985456110986481 l 1.58187718622851 15.261117098750345" fill="#ffa90f" stroke="none" /><path d="M 97.83486435360386 79.11191278185805 l -1.2620711018963362 -12.17579660460858 a33.2410312646868,33.2410312646868 0 0,0 0.5696481857985067,-0.05409495920116813 l 1.052297789007593 12.195717108324928" fill="#ff7e0b" stroke="none" /><path d="M 98.19473922651362 79.07773832637324 l -0.5433599387377377 -6.297327781227901 a27.320726003177942,27.320726003177942 0 0,0 0.46888846120423405,-0.0363947688933222 l 0.43488128817116944 6.3057478123096855" fill="#ff2904" stroke="none" /><path d="M 99.63851952072746 79.00311137660856 l -0.28604227079915184 -16.61499872313575 a37.61746077926728,37.61746077926728 0 0,0 0.6475227500716835,-0.0055734327400949 l 4.070104030657272e-15 16.617460779267283" fill="#ffba11" stroke="none" /></svg>