<?xml version="1.0" encoding="utf-8" ?>
<svg baseProfile="full" height="200mm" version="1.1" viewBox="0,0,200,200" width="200mm" xmlns="http://www.w3.org/2000/svg" xmlns:ev="http://www.w3.org/2001/xml-events" xmlns:xlink="http://www.w3.org/1999/xlink"><defs /><rect fill="#1a1a1a" height="200" width="200" x="0" y="0" /><text alignment-baseline="middle" fill="#e1ed5e" style="dominant-baseline: central; font-size:9.0px; font-family:Arial;" text-anchor="middle" x="100.0" y="100.0">2020</text><line stroke="#e1ed5e" stroke-width="0.3" x1="100.0" x2="100.0" y1="15.0" y2="10.0" /><path d="M 100.0 14.0 a86.0,86.0 0 0,1 42.35913384403234,11.155469271406648" fill="none" id="id13" stroke="none" /><text fill="#e1ed5e" style="font-size:6.75px; font-family:Arial;" text-anchor="middle"><textPath startOffset="22.145653131862478" xlink:href="#id13">January</textPath></text><path d="M 100.36049292484886 79.00309439819443 l 0.01978506074761038 -1.1523805994742908 a22.152550430425286,22.152550430425286 0 0,0 0.38016591592865434,0.00979172545298036 l -0.03956429074700607 1.1518711566712654" fill="#ff0601" stroke="none" /><path d="M 100.72087961077811 79.0123766808444 l 0.13828844977413707 -4.026117329240013 a25.028491584222024,25.028491584222024 0 0,0 0.4292675199835971,0.01843459433255337 l -0.20738173035857038 4.02315016648163" fill="#ff2f04" stroke="none" /><path d="M 101.80034050326958 79.07731436759882 l 0.4027444418177625 -4.6805009002722855 a25.697796479506618,25.697796479506618 0 0,0 0.43918811316847634,0.04159157093921431 l -0.4830321183712517 4.672897573827887" fill="#ff3905" stroke="none" /><path d="M 102.15924093988457 79.11130261209362 l 0.3753395752112262 -3.631069909554312 a24.650417576769883,24.650417576769883 0 0,0 0.4205409346812065,0.04712248889547739 l -0.43761641149322933 3.6240916601518633" fill="#ff2a04" stroke="none" /><path d="M 102.51750503828377 79.15144685158666 l 0.6449532671222995 -5.341138255281785 a26.379937042271617,26.379937042271617 0 0,0 0.4491148833207969,0.05814691323908441 l -0.7365459723338881 5.329279745842303" fill="#ff4206" stroke="none" /><path d="M 107.06938296918511 80.22567764915836 l 0.8124580603322027 -2.272589793420178 a23.413452396248232,23.413452396248232 0 0,0 0.37730315657714913,0.1385509452884035 l -0.8513503685634766 2.2583079991230526" fill="#ff1802" stroke="none" /><line stroke="#e1ed5e" stroke-width="0.3" x1="143.13028292997686" x2="145.6673583964461" y1="26.7553504044142" y2="22.446841604673864" /><path d="M 143.63769802327073 25.89364864446614 a86.0,86.0 0 0,1 29.32050498858742,28.57503671076993" fill="none" id="id14" stroke="none" /><text fill="#e1ed5e" style="font-size:6.75px; font-family:Arial;" text-anchor="middle"><textPath startOffset="20.669276256404974" xlink:href="#id14">February</textPath></text><line stroke="#e1ed5e" stroke-width="0.3" x1="172.87174338648825" x2="177.1583165268699" y1="56.24261187166439" y2="53.66864786411523" /><path d="M 173.72905801456457 55.72781907015455 a86.0,86.0 0 0,1 12.242430191666344,42.057860355516425" fill="none" id="id15" stroke="none" /><text fill="#e1ed5e" style="font-size:6.75px; font-family:Arial;" text-anchor="middle"><textPath startOffset="22.145653131862474" xlink:href="#id15">March</textPath></text><path d="M 120.35273937422433 94.82641323984039 l 5.211427234840321 -1.3247244239687344 a26.377161762816396,26.377161762816396 0 0,0 0.10778521401653236,0.439800454981916 l -5.233399975373144 1.2350681443787233" fill="#ff4206" stroke="none" /><line stroke="#e1ed5e" stroke-width="0.3" x1="184.99686870605535" x2="189.99668451229388" y1="99.2704041080226" y2="99.22748670261217" /><path d="M 185.99683186730306 99.26182062694052 a86.0,86.0 0 0,1 -10.086455211305974,41.156179273409016" fill="none" id="id16" stroke="none" /><text fill="#e1ed5e" style="font-size:6.75px; font-family:Arial;" text-anchor="middle"><textPath startOffset="21.40746469413373" xlink:href="#id16">April</textPath></text><line stroke="#e1ed5e" stroke-width="0.3" x1="174.33088141563837" x2="178.70328620479359" y1="141.23008692659167" y2="143.65538615756765" /><path d="M 175.20536237346943 141.71514677278685 a86.0,86.0 0 0,1 -30.301960400862466,31.631185727798858" fill="none" id="id17" stroke="none" /><text fill="#e1ed5e" style="font-size:6.75px; font-family:Arial;" text-anchor="middle"><textPath startOffset="22.145653131862474" xlink:href="#id17">May</textPath></text><line stroke="#e1ed5e" stroke-width="0.3" x1="143.1302829299769" x2="145.66735839644613" y1="173.24464959558577" y2="177.55315839532614" /><path d="M 143.63769802327073 174.10635135553383 a86.0,86.0 0 0,1 -40.68552437913181,11.842963189579606" fill="none" id="id18" stroke="none" /><text fill="#e1ed5e" style="font-size:6.75px; font-family:Arial;" text-anchor="middle"><textPath startOffset="21.407464694133747" xlink:href="#id18">June</textPath></text><path d="M 103.2317021107853 120.74984581791261 l 0.41384068815202196 2.6571540872146278 a23.68918797378903,23.68918797378903 0 0,0 -0.40234945803766137,0.05913151466700206 l -0.3681661245066751 -2.663866675180512" fill="#ff1c02" stroke="none" /><path d="M 102.875027216393 120.80226474461374 l 0.5258306096375891 3.804648349112385 a24.840813311062572,24.840813311062572 0 0,0 -0.422911508617891,0.05475436177395594 l -0.46044127912892274 -3.8131143070867357" fill="#ff2d04" stroke="none" /><path d="M 101.44090949804482 120.95050786540614 l 0.18474405803385868 2.6861380580649215 a23.692483618142106,23.692483618142106 0 0,0 -0.40599400199988017,0.024423590988269902 l -0.13860570390151336 -2.688913626877883" fill="#ff1c02" stroke="none" /><path d="M 101.08105385017728 120.97215588758144 l 0.043262195202896765 0.839275029347836 a21.84038931003469,21.84038931003469 0 0,0 -0.3745878860915961,0.016086415581246447 l -0.02884854851047112 -0.8398940133549134" fill="#ff0200" stroke="none" /><path d="M 100.72087961077811 120.9876233191556 l 0.116124587289346 3.380840655890559 a24.382834382628808,24.382834382628808 0 0,0 -0.41844042270083415,0.010777540978409482 l -0.05807085051776804 -3.3823359142190133" fill="#ff2603" stroke="none" /><line stroke="#e1ed5e" stroke-width="0.3" x1="101.45913802915013" x2="101.54496967792366" y1="184.9874750549273" y2="189.98673829345242" /><path d="M 101.47630435890484 185.9873277026323 a86.0,86.0 0 0,1 -42.54439059252881,-10.42667462771756" fill="none" id="id19" stroke="none" /><text fill="#e1ed5e" style="font-size:6.75px; font-family:Arial;" text-anchor="middle"><textPath startOffset="22.145653131862474" xlink:href="#id19">July</textPath></text><path d="M 100.36049292484886 120.99690560180557 l 0.05773736098173929 3.3629118206390314 a24.363407426442247,24.363407426442247 0 0,0 -0.41823028583059113,0.003590003997650714 l -4.118986139020935e-16 -3.3634074264422473" fill="#ff2603" stroke="none" /><path d="M 99.63950707515114 120.99690560180557 l -0.057090232477301744 3.325219829525496 a24.325709880508803,24.325709880508803 0 0,0 -0.41746009365300607,-0.010752291179601267 l 0.11416364020105174 -3.323749820995847" fill="#ff2503" stroke="none" /><path d="M 99.27912038922189 120.98762331915562 l -0.09096174600859176 2.6482519870695334 a23.649813696518052,23.649813696518052 0 0,0 -0.40562160286072646,-0.0174191369091807 l 0.13640910947015697 -2.6463002817345243" fill="#ff1c02" stroke="none" /><path d="M 98.91894614982273 120.97215588758144 l -0.4288538103621667 8.319649351809671 a29.330695104715407,29.330695104715407 0 0,0 -0.5026102994910975,-0.030235787525908785 l 0.5716084619857105 -8.31106158645907" fill="#ff6b09" stroke="none" /><path d="M 98.19965949673042 120.92268563240118 l -1.1587694815018372 13.466657856029503 a34.516420403443405,34.516420403443405 0 0,0 -0.5899027787229622,-0.055864406464671446 l 1.3897718236098147 -13.444781694059648" fill="#ffb010" stroke="none" /><path d="M 97.84075906011543 120.88869738790638 l -0.443183202180159 4.287395457701708 a25.310240267249135,25.310240267249135 0 0,0 -0.43179763855300746,-0.04838382604355044 l 0.5167167423339657 -4.279155871151186" fill="#ff3304" stroke="none" /><path d="M 97.48249496171623 120.84855314841334 l -0.4925125401524153 4.078710355482623 a25.108338686881666,25.108338686881666 0 0,0 -0.42746609219226545,-0.05534404380359865 l 0.5624564542354747 -4.069654715478627" fill="#ff3104" stroke="none" /><path d="M 96.76829788921471 120.74984581791261 l -1.085589961085585 6.970266299862014 a28.054297828600795,28.054297828600795 0 0,0 -0.47521642255632823,-0.07819668149058508 l 1.2050838866949767 -6.950603619875761" fill="#ff5a08" stroke="none" /><path d="M 96.41257539226777 120.69131181640829 l -0.6785362668691526 3.9136168733052368 a24.97200308364384,24.97200308364384 0 0,0 -0.4217477203535412,-0.07685648380416485 l 0.7456187207737509 -3.901392215569706" fill="#ff2f04" stroke="none" /><path d="M 96.05791012581884 120.62667999033965 l -0.7641457689608998 3.9983335604702455 a25.070698959270203,25.070698959270203 0 0,0 -0.4220276282046366,-0.0844173452139889 l 0.8326698826964944 -3.984626818593395" fill="#ff3004" stroke="none" /><path d="M 95.70440661134978 120.55596938700252 l -4.39135939386037 21.014244389617254 a42.468174225876915,42.468174225876915 0 0,0 -0.7123279552343029,-0.15524856243065513 l 4.751449765713809 -20.93576436905288" fill="#ecff1a" stroke="none" /><path d="M 95.00130118170881 120.39639698878247 l -3.8818064952795046 15.839095170455005 a37.30783117049981,37.30783117049981 0 0,0 -0.6207218443911361,-0.15778506553033755 l 4.1531336328960196 -15.770124873089404" fill="#ffd313" stroke="none" /><path d="M 94.6519064749342 120.30758222061772 l -3.1563774380970626 11.985279248210247 a33.3939355004497,33.3939355004497 0 0,0 -0.5530967553830269,-0.1507489801916641 l 3.3616555944147843 -11.92932977387444" fill="#ffa10e" stroke="none" /><path d="M 94.30408787586889 120.21278271476187 l -0.30688672479521845 1.0890327222660443 a22.131446742901197,22.131446742901197 0 0,0 -0.3647894619792833,-0.10618489588358766 l 0.32553619915610854 -1.0836041320799408" fill="#ff0601" stroke="none" /><path d="M 93.95794788825049 120.11202640906438 l -0.20849022351798718 0.6939961463211121 a21.7246370294231,21.7246370294231 0 0,0 -0.3562420123116958,-0.11036468604575622 l 0.22037286870131662 -0.6903148724687068" fill="#ff0000" stroke="none" /><path d="M 93.61358852112213 120.00534299687104 l -1.2442020417541846 3.8974451748093664 a25.091224463574456,25.091224463574456 0 0,0 -0.409198755397664,-0.13451175861925085 l 1.310923534799592 -3.875512494788094" fill="#ff3004" stroke="none" /><path d="M 93.27111125876986 119.89276391827306 l -1.7551294928816998 5.188728479631713 a26.477534369780294,26.477534369780294 0 0,0 -0.42930702968522577,-0.14933527011789507 l 1.8439422946119473 -5.1578347769452275" fill="#ff4406" stroke="none" /><path d="M 92.93061703081489 119.77432235084164 l -5.487799761693358 15.35035263439764 a37.30181806501349,37.30181806501349 0 0,0 -0.6011114236297586,-0.22073644101763973 l 5.750500336977235 -15.25388534437128" fill="#ffd313" stroke="none" /><path d="M 91.92203290615298 119.3841803445677 l -9.905225164969012 23.768934525316332 a46.75025697031993,46.75025697031993 0 0,0 -0.7381307351489121,-0.3150641188684487 l 10.311790975288357 -23.59539575678848" fill="#baff1f" stroke="none" /><path d="M 91.59046798132341 119.24265499422711 l -20.90556931439748 47.836033786593305 a73.20468328408069,73.20468328408069 0 0,0 -1.1471752436661469,-0.5131168950118438 l 21.72365796091926 -47.47011314067161" fill="#40ffc3" stroke="none" /><path d="M 91.26138138417905 119.09545874513695 l -12.95668907912767 28.312703947980406 a52.13655402800977,52.13655402800977 0 0,0 -0.8106273004759059,-0.3794145075946331 l 13.440805093475067 -28.086113208815245" fill="#7fff26" stroke="none" /><path d="M 90.93487009805054 118.94263497670748 l -13.481936866235513 28.17206279428985 a52.23183862263909,52.23183862263909 0 0,0 -0.8054640761971076,-0.3939928419875897 l 13.963561191694689 -27.93647620220504" fill="#7eff26" stroke="none" /><path d="M 90.6110303473126 118.78422872680471 l -4.41113202623084 8.82521895266077 a30.866234099961456,30.866234099961456 0 0,0 -0.47191940655778997,-0.24096541154730622 l 4.561978654502212 -8.748195589440627" fill="#ff800b" stroke="none" /><path d="M 90.28995756902619 118.62028667847754 l -11.562384384854136 22.17239661548466 a46.0060773480663,46.0060773480663 0 0,0 -0.6971261120925337,-0.37118038890485694 l 11.941299312733232 -21.97064575885723" fill="#c3ff1e" stroke="none" /><path d="M 89.97174638481275 118.45085714620012 l -21.407415942033644 39.38723416583382 a65.82891558524992,65.82891558524992 0 0,0 -0.9882356297919691,-0.548157645170954 l 22.080395759981716 -39.01394360522971" fill="#37ff73" stroke="none" /><line stroke="#e1ed5e" stroke-width="0.3" x1="58.13341422392154" x2="55.67067388415222" y1="173.97424548756322" y2="178.32567169271397" /><path d="M 57.64086615596768 174.84453072859336 a86.0,86.0 0 0,1 -31.369924170532247,-30.572349798747897" fill="none" id="id20" stroke="none" /><text fill="#e1ed5e" style="font-size:6.75px; font-family:Arial;" text-anchor="middle"><textPath startOffset="22.145653131862474" xlink:href="#id20">August</textPath></text><path d="M 89.65649057296885 118.27599006163327 l -30.21995034891088 53.39575664681054 a82.35431710137479,82.35431710137479 0 0,0 -1.2243637192029668,-0.7068867228678496 l 31.13210653597425 -52.86912302666652" fill="#4be1ff" stroke="none" /><path d="M 89.34428304082925 118.09573695890944 l -31.967150877512246 54.2872108767283 a84.0,84.0 0 0,0 -1.236268973770291,-0.7423439978563251 l 32.89435260783996 -53.73045287833606" fill="#4dd2ff" stroke="none" /><path d="M 89.03521579738668 117.91015095944536 l -7.870741110532309 12.856264094896522 a36.074219452653224,36.074219452653224 0 0,0 -0.5253709683111054,-0.32787034049494274 l 8.09027620763313 -12.719257957560032" fill="#ffc412" stroke="none" /><path d="M 88.72937992617639 117.7192867562869 l -15.409031811123132 24.22555737924086 a49.71090196582295,49.71090196582295 0 0,0 -0.7161077180059383,-0.4641723710434539 l 15.82262516138608 -23.957471166493516" fill="#99ff23" stroke="none" /><path d="M 88.4268655584334 117.5232005979908 l -21.761904820451395 32.95029756100654 a60.48800591031737,60.48800591031737 0 0,0 -0.8615327187326822,-0.5796776621469596 l 22.32433382728108 -32.57187022480246" fill="#30ff35" stroke="none" /><path d="M 88.1277618465304 117.32195027204791 l -14.960968235283035 21.828499769230557 a47.46344597199024,47.46344597199024 0 0,0 -0.6681156009109088,-0.4663965779082549 l 15.33347892736771 -21.56845837551717" fill="#b2ff20" stroke="none" /><path d="M 87.83215693770417 117.11559508785305 l -13.357647771199273 18.7892044142516 a44.05343697802904,44.05343697802904 0 0,0 -0.612592388375178,-0.4434696474057436 l 13.678221169948406 -18.557133995472793" fill="#d9ff1c" stroke="none" /><path d="M 87.54013794807813 116.9041958592261 l -20.82968021764195 28.25946167114715 a56.10659128870616,56.10659128870616 0 0,0 -0.7703889476430312,-0.5781142285690756 l 21.31172215419575 -27.89772841531406" fill="#56ff2b" stroke="none" /><path d="M 86.40962598614128 116.0094264158162 l -13.02171161557872 15.339543540523616 a41.12129641526404,41.12129641526404 0 0,0 -0.5342254038494224,-0.4614511800435406 l 13.283116499191005 -15.113748228015353" fill="#fcff18" stroke="none" /><path d="M 86.13680546590413 115.77377054828092 l -13.975156605184909 15.901162832586346 a42.169600411152516,42.169600411152516 0 0,0 -0.5396403064457256,-0.48254968961102895 l 14.246061938454005 -15.658917613091937" fill="#efff19" stroke="none" /><path d="M 85.86807049272751 115.53346607816431 l -16.872716085340862 18.546070642601443 a46.07279969163562,46.07279969163562 0 0,0 -0.5804519595534198,-0.5372576681180542 l 17.188597816208247 -18.25369522835101" fill="#c2ff1e" stroke="none" /><path d="M 85.60350026404147 115.28858382429668 l -16.60129324235397 17.629998123329244 a45.21610561480149,45.21610561480149 0 0,0 -0.5605236368358415,-0.5369689645311017 l 16.901489365055127 -17.342417028492562" fill="#ccff1d" stroke="none" /><path d="M 85.34317274990678 115.03919595460226 l -13.246752281780616 13.592334816288867 a39.979673647693694,39.979673647693694 0 0,0 -0.48738664211318095,-0.4832209693485308 l 13.47813084402376 -13.362933836711676" fill="#fff417" stroke="none" /><path d="M 85.08716467003676 114.78537596483092 l -17.830488409456 17.678091988360798 a46.108589232943594,46.108589232943594 0 0,0 -0.552453791967823,-0.5668662590817091 l 18.13132900257463 -17.36940303721135" fill="#c1ff1e" stroke="none" /><path d="M 84.83555147118756 114.52719865689866 l -24.765152439679177 23.72445582680033 a55.29522677630734,55.29522677630734 0 0,0 -0.6507567961902523,-0.6910811662737124 l 25.168765069605683 -23.295833200582127" fill="#5eff2a" stroke="none" /><path d="M 84.58840730492382 114.26474011684316 l -45.20936587986556 41.84511412176081 a82.60276243093924,82.60276243093924 0 0,0 -0.9542676229789544,-1.0489072807365587 l 45.92103120368639 -41.06286926546658" fill="#4bdfff" stroke="none" /><path d="M 84.3458050057657 113.99807769240083 l -20.372362641901827 18.217092296610595 a48.32939098034177,48.32939098034177 0 0,0 -0.5477076351876485,-0.6231907475397068 l 20.68208134104807 -17.864689271259586" fill="#a8ff21" stroke="none" /><path d="M 84.1078160697243 113.72728997021213 l -7.216503010507638 6.233443422928498 a30.535918026467947,30.535918026467947 0 0,0 -0.3392474135179117,-0.39963260009861146 l 7.322444987532661 -6.108644040380332" fill="#ff7b0b" stroke="none" /><path d="M 83.8745106332314 113.45245675266167 l -25.764036607268373 21.493275667498303 a54.55214570217141,54.55214570217141 0 0,0 -0.5937174484566181,-0.7242387500103157 l 26.129200874963622 -21.04783463578949" fill="#66ff29" stroke="none" /><path d="M 83.64595745247003 113.17365903436017 l -26.775786063329832 21.568677894173362 a55.38241680585893,55.38241680585893 0 0,0 -0.5900431329367419,-0.7455002232771781 l 27.142095626908134 -21.105857726981505" fill="#5dff2a" stroke="none" /><path d="M 83.4222238831116 112.89097897827486 l -14.95779075926461 11.631268565792752 a39.947873570602596,39.947873570602596 0 0,0 -0.4163101495155711,-0.5449633494512097 l 15.155252886134475 -11.372784303100671" fill="#fff417" stroke="none" /><path d="M 83.20337586046588 112.60449989151573 l -24.582878830159633 18.447450569462212 a51.73477450854426,51.73477450854426 0 0,0 -0.52695065641255,-0.7149097692274639 l 24.895931506156014 -18.022734490965867" fill="#83ff25" stroke="none" /><path d="M 82.78059297857968 112.02048342749411 l -28.19341688156854 19.681194594433464 a55.38339971733265,55.38339971733265 0 0,0 -0.5375097748786487,-0.784242825222185 l 28.527116393262514 -19.19431703414123" fill="#5dff2a" stroke="none" /><path d="M 82.576782715395 111.72311816256416 l -7.399790464578423 4.978909266724162 a29.918880894256716,29.918880894256716 0 0,0 -0.28305478326335254,-0.42858101859854514 l 7.4841696867625025 -4.851148369786555" fill="#ff730a" stroke="none" /><path d="M 82.18462484594161 111.11811171558189 l -10.794830264990656 6.736772467548639 a33.724482847231144,33.724482847231144 0 0,0 -0.3022870501915766,-0.4937631787341713 l 10.908885279637637 -6.550472172689911" fill="#ffa50f" stroke="none" /><line stroke="#e1ed5e" stroke-width="0.3" x1="26.387840678322732" x2="22.057713659400534" y1="142.50000000000003" y2="145.00000000000006" /><path d="M 25.521815274538284 143.00000000000003 a86.0,86.0 0 0,1 -11.493303480769212,-40.785679425670985" fill="none" id="id21" stroke="none" /><text fill="#e1ed5e" style="font-size:6.75px; font-family:Arial;" text-anchor="middle"><textPath startOffset="21.40746469413373" xlink:href="#id21">September</textPath></text><path d="M 81.4637452351635 109.86951160357371 l -29.615053159538764 15.768347732951462 a54.551336245663634,54.551336245663634 0 0,0 -0.43301274184697686,-0.8303590273617087 l 29.88137397036069 -15.25764246248525" fill="#66ff29" stroke="none" /><path d="M 81.29705330413844 109.54985784667822 l -17.908566661460135 9.144241740931019 a41.10805601952975,41.10805601952975 0 0,0 -0.3155142874725992,-0.6312399295873419 l 18.06290086214447 -8.835469955179923" fill="#fcff18" stroke="none" /><path d="M 81.1358732173502 109.22738970284198 l -31.10191783937787 15.21350655221792 a55.62340357188745,55.62340357188745 0 0,0 -0.4121978732691623,-0.8613350206745268 l 31.35849497060694 -14.67735902947829" fill="#5bff2a" stroke="none" /><path d="M 80.68587082218212 108.24405325689762 l -9.753828443446949 4.163329364016625 a31.60521007323654,31.60521007323654 0 0,0 -0.2087059911977637,-0.5008184021262886 l 9.823860279181199 -3.995278452449055" fill="#ff8a0c" stroke="none" /><path d="M 80.41425534168474 107.57618678355246 l -20.293144468366474 7.849824226759001 a42.75848002055763,42.75848002055763 0 0,0 -0.25893174596897217,-0.6868472191247141 l 20.42490689814988 -7.500308727440141" fill="#e8ff1a" stroke="none" /><path d="M 80.28708602549918 107.23885506374661 l -15.300077538019933 5.618400400117196 a37.29904278555827,37.29904278555827 0 0,0 -0.21555264237995417,-0.6029391041023531 l 15.39427035044383 -5.354926339633921" fill="#ffd313" stroke="none" /><path d="M 79.64726062577567 105.17358676015961 l -15.516661616931264 3.944274705590671 a37.01012463060517,37.01012463060517 0 0,0 -0.1512347780234513,-0.6170895033302243 l 15.582083921471009 -3.6773293776523466" fill="#ffcf13" stroke="none" /><path d="M 79.56144815229197 104.8234425847677 l -24.51630198246033 5.7857805134312805 a46.18976615700887,46.18976615700887 0 0,0 -0.1754972212628855,-0.7732731382947355 l 24.61201006528088 -5.364073041197519" fill="#c1ff1e" stroke="none" /><path d="M 79.48165901384964 104.47187691870673 l -19.97021607157018 4.352415644730744 a41.43900809456508,41.43900809456508 0 0,0 -0.14551463419337252,-0.6963402015058469 l 20.041988416587923 -4.008958991939488" fill="#f8ff18" stroke="none" /><path d="M 79.34024301695615 103.76489593502545 l -1.3802876129766575 0.25153438288392554 a22.403019401259154,22.403019401259154 0 0,0 -0.06569971612150288,-0.37893850356868497 l 1.3844021465903946 -0.22780284639464793" fill="#ff0a01" stroke="none" /><path d="M 79.2786578344484 103.40968896794605 l -1.5046088276612746 0.24758281002085433 a22.524842605679044,22.524842605679044 0 0,0 -0.05950688845635483,-0.3820769112512794 l 1.508637208255897 -0.22171771683812494" fill="#ff0c01" stroke="none" /><path d="M 79.17382384314188 102.69636545807758 l -33.8245984726188 4.379271464333575 a55.106912501606075,55.106912501606075 0 0,0 -0.1134097995709906,-0.9391958299787521 l 33.894790358449455 -3.7979819574314244" fill="#60ff29" stroke="none" /><path d="M 79.13060592940153 102.33845913500099 l -1.8196030857391894 0.20389032108591354 a22.83099062058332,22.83099062058332 0 0,0 -0.04029953331326409,-0.38986142801628515 l 1.8228350115341196 -0.17262437078669698" fill="#ff1001" stroke="none" /><path d="M 79.00696218219943 100.54070618675478 l -4.135876215810662 0.10652550035633777 a25.13724784787357,25.13724784787357 0 0,0 -0.007407789415611941,-0.43146659575315854 l 4.13709543682494 -0.03551198863412685" fill="#ff3104" stroke="none" /><line stroke="#e1ed5e" stroke-width="0.3" x1="15.003131293944662" x2="10.003315487706104" y1="100.72959589197737" y2="100.7725132973878" /><path d="M 14.003168132696942 100.73817937305945 a86.0,86.0 0 0,1 10.791469493833604,-42.45332614584628" fill="none" id="id22" stroke="none" /><text fill="#e1ed5e" style="font-size:6.75px; font-family:Arial;" text-anchor="middle"><textPath startOffset="22.145653131862435" xlink:href="#id22">October</textPath></text><path d="M 79.00077361379809 100.18025310272382 l -8.67028960524035 0.074424008490407 a29.67060901965823,29.67060901965823 0 0,0 0.0,-0.509354222428446 l 8.67028960524035 0.07442400849040383" fill="#ff700a" stroke="none" /><path d="M 79.00696218219943 99.45929381324524 l -20.43541085283976 -0.5263436941763917 a41.44218810227419,41.44218810227419 0 0,0 0.02442190710957346,-0.7110171788573325 l 20.423364258733336 0.8770671375978627" fill="#f8ff18" stroke="none" /><path d="M 79.01933749520258 99.09900007780938 l -1.2350751959813715 -0.053039443116933566 a22.23621354233586,22.23621354233586 0 0,0 0.019650894278573295,-0.3812220992256976 l 1.2339827122462277 0.0742333357193432" fill="#ff0701" stroke="none" /><path d="M 79.06263194458094 98.37931529534042 l -16.584373906506112 -1.2837354272746504 a37.633984324810484,37.633984324810484 0 0,0 0.05538714852046731,-0.6436826225174039 l 16.559893135287904 1.568239097167735" fill="#ffd714" stroke="none" /><path d="M 79.13060592940154 97.66154086499901 l -24.59791026258969 -2.756247151254162 a45.751850186303486,45.751850186303486 0 0,0 0.09415711975296391,-0.7797560225776037 l 24.546971056577057 3.178096850755202" fill="#c6ff1e" stroke="none" /><path d="M 79.17382384314186 97.30363454192245 l -16.59119668731506 -2.1480625785024583 a37.729673647693694,37.729673647693694 0 0,0 0.08867458490934076,-0.6416051232089164 l 16.551877585850512 2.432556009911442" fill="#ffd814" stroke="none" /><path d="M 79.22317932658666 96.9465228501225 l -23.810531663611822 -3.49932819386118 a45.066298342541444,45.066298342541444 0 0,0 0.11905766604266031,-0.7644356222007795 l 23.746952505430897 3.90755199799341" fill="#cdff1d" stroke="none" /><path d="M 79.2786578344484 96.59031103205396 l -24.94884816282065 -4.105323471041956 a46.28435693177438,46.28435693177438 0 0,0 0.13573478899513786,-0.7828821928074439 l 24.874698556333275 4.532998696769993" fill="#bfff1e" stroke="none" /><path d="M 79.34024301695615 96.23510406497455 l -33.33167627967172 -6.074141754712519 a54.880611589361436,54.880611589361436 0 0,0 0.17685592705118047,-0.9253849425331351 l 33.22249406033838 6.645429262278968" fill="#62ff29" stroke="none" /><path d="M 79.56144815229197 95.17655741523228 l -11.857631380422555 -2.79836871912341 a33.18336117178466,33.18336117178466 0 0,0 0.13559744288827957,-0.553283839725026 l 11.807846411017978 3.001508383456554" fill="#ff9e0e" stroke="none" /><path d="M 80.28708602549916 92.7611449362534 l -14.278085916702821 -5.243110920710566 a36.21032378260311,36.21032378260311 0 0,0 0.21927819591864306,-0.5816614664910649 l 14.185977036969742 5.487440667395776" fill="#ffc512" stroke="none" /><path d="M 80.41425534168474 92.42381321644754 l -25.83421230332686 -9.993228301016211 a48.6996595143261,48.6996595143261 0 0,0 0.30829510783489317,-0.7771050650140734 l 25.658858520525836 10.435234383243868" fill="#a4ff21" stroke="none" /><path d="M 80.5471966667186 92.08871423366112 l -21.645024045554454 -8.802842845313029 a44.366581009893366,44.366581009893366 0 0,0 0.2929761024928987,-0.7030359917777664 l 21.490722098525076 9.173111346532059" fill="#d6ff1c" stroke="none" /><path d="M 80.68587082218212 91.75594674310238 l -15.08702527399809 -6.439753959492407 a37.403925221636904,37.403925221636904 0 0,0 0.2571361657892853,-0.5883778685701803 l 14.97425522619183 6.697793897838454" fill="#ffd413" stroke="none" /><path d="M 80.83023694016515 91.42560881287825 l -6.234122639099449 -2.7884437616304556 a27.82932673776179,27.82932673776179 0 0,0 0.19880149253757576,-0.4344171391517215 l 6.1853366817068265 2.8950498829968483" fill="#ff5608" stroke="none" /><path d="M 81.29705330413844 90.45014215332179 l -30.56840627928358 -15.608446054720275 a55.322748297571636,55.322748297571636 0 0,0 0.4391359877778905,-0.8421011588144592 l 30.29596222253075 16.13089345663922" fill="#5eff2a" stroke="none" /><path d="M 81.46374523516351 90.13048839642627 l -9.827556117152966 -5.232620093084307 a32.13378517281254,32.13378517281254 0 0,0 0.2634276453314749,-0.4846771969358717 l 9.736283122206139 5.400552123494799" fill="#ff910d" stroke="none" /><path d="M 81.63589988554816 89.8137432299009 l -17.28155493489248 -9.585787207446984 a40.76207118077862,40.76207118077862 0 0,0 0.3446658959204901,-0.608991612843222 l 17.11445567395062 9.881035590389311" fill="#fffe18" stroke="none" /><line stroke="#e1ed5e" stroke-width="0.3" x1="26.387840678322718" x2="22.05771365940052" y1="57.49999999999999" y2="54.99999999999999" /><path d="M 25.521815274538284 56.99999999999999 a86.0,86.0 0 0,1 29.574782752854787,-30.34633250058573" fill="none" id="id23" stroke="none" /><text fill="#e1ed5e" style="font-size:6.75px; font-family:Arial;" text-anchor="middle"><textPath startOffset="21.40746469413373" xlink:href="#id23">November</textPath></text><path d="M 82.576782715395 88.27688183743585 l -28.60003160298499 -19.243377641344914 a55.47128356674804,55.47128356674804 0 0,0 0.5383627096633953,-0.7854872825633934 l 28.265479156506284 19.731499658978343" fill="#5cff2a" stroke="none" /><path d="M 82.78059297857968 87.97951657250589 l -11.485067296378926 -8.017468948149077 a35.00666195554413,35.00666195554413 0 0,0 0.34820776825611444,-0.48979783330572874 l 11.34574442959284 8.213444008164325" fill="#ffb610" stroke="none" /><path d="M 84.10781606972428 86.27271002978789 l -26.077667537136875 -22.52526811919767 a55.459141719131445,55.459141719131445 0 0,0 0.6285077205478917,-0.7151264124125666 l 25.68714875263039 22.969606809421535" fill="#5cff2a" stroke="none" /><path d="M 84.34580500576568 86.00192230759919 l -5.496926567160066 -4.915385632085796 a28.374090967493256,28.374090967493256 0 0,0 0.32779141453504335,-0.3603001851780626 l 5.411737451783156 5.009023392821517" fill="#ff5e08" stroke="none" /><path d="M 84.58840730492382 85.73525988315684 l -3.574727991931282 -3.3087148617414397 a25.87096235384813,25.87096235384813 0 0,0 0.30446940101819525,-0.32333595282007116 l 3.5174027571768156 3.369592274506022" fill="#ff3b05" stroke="none" /><path d="M 85.08716467003674 85.21462403516908 l -5.797833147170897 -5.748279315472856 a29.164409610689965,29.164409610689965 0 0,0 0.3555392621416951,-0.3525004832891479 l 5.698301964899225 5.846959808990677" fill="#ff6909" stroke="none" /><path d="M 85.34317274990677 84.96080404539775 l -4.6446197188120095 -4.7657890001657135 a27.65471540537068,27.65471540537068 0 0,0 0.34282301502774903,-0.32841669342624624 l 4.56212421791896 4.844817823897528" fill="#ff5407" stroke="none" /><path d="M 85.60350026404147 84.71141617570332 l -23.44743254154477 -24.900360813439157 a55.20248618784531,55.20248618784531 0 0,0 0.6954730664169795,-0.6437194874655484 l 23.016529703813838 25.299198047037073" fill="#5fff29" stroke="none" /><path d="M 86.13680546590413 84.22622945171909 l -4.483012218255801 -5.100844969172803 a27.790877553642556,27.790877553642556 0 0,0 0.36104388914436836,-0.31186111235574454 l 4.3947888493485845 5.177050213993258" fill="#ff5608" stroke="none" /><path d="M 88.12776184653039 82.6780497279521 l -9.922648897546926 -14.477441283475923 a38.55150327637158,38.55150327637158 0 0,0 0.5490903680668484,-0.3694525047599138 l 9.672662241383088 14.645643462292945" fill="#ffe315" stroke="none" /><path d="M 88.4268655584334 82.4767994020092 l -7.211823124290373 -10.919619392848107 a34.086194269561865,34.086194269561865 0 0,0 0.49102683372479483,-0.31827766120250994 l 7.023310658308553 11.041810895754523" fill="#ffaa0f" stroke="none" /><path d="M 88.72937992617638 82.28071324371311 l -2.1006970332895074 -3.3026446528340707 a24.914126943338044,24.914126943338044 0 0,0 0.36283970091237305,-0.22643880887757303 l 2.0436932035874356 3.33821925855318" fill="#ff2e04" stroke="none" /><line stroke="#e1ed5e" stroke-width="0.3" x1="56.869717070023135" x2="54.33264160355391" y1="26.7553504044142" y2="22.446841604673864" /><path d="M 56.362301976729285 25.89364864446614 a86.0,86.0 0 0,1 42.16139366436587,-11.88097634709845" fill="none" id="id24" stroke="none" /><text fill="#e1ed5e" style="font-size:6.75px; font-family:Arial;" text-anchor="middle"><textPath startOffset="22.145653131862474" xlink:href="#id24">December</textPath></text><path d="M 90.61103034731259 81.2157712731953 l -13.373581783139558 -26.756122173556893 a50.912251060002575,50.912251060002575 0 0,0 0.7851147948942384,-0.3840389887868639 l 12.912306738983267 26.981754912440973" fill="#8cff24" stroke="none" /><path d="M 91.92203290615298 80.6158196554323 l -5.974005177521437 -14.335437665828353 a36.53040601310549,36.53040601310549 0 0,0 0.5809126723323081,-0.23625212661486716 l 5.727038043998688 14.435877049022512" fill="#ffc912" stroke="none" /><path d="M 92.592206182469 80.34994680014964 l -1.4284419951866292 -3.789112101350708 a25.04942181678016,25.04942181678016 0 0,0 0.40366648036143776,-0.14823192295207951 l 1.3631863631710643 3.8130748733115096" fill="#ff3004" stroke="none" /><path d="M 93.61358852112211 79.99465700312896 l -4.096231029494851 -12.831385357880018 a34.46935628934858,34.46935628934858 0 0,0 0.5652307484344217,-0.17510993071696623 l 3.8753596481888137 12.899811876403627" fill="#ffaf10" stroke="none" /><path d="M 94.6519064749342 79.69241777938228 l -4.837197015251287 -18.36762495721939 a39.993896954901714,39.993896954901714 0 0,0 0.6654121856824918,-0.16914517552637984 l 4.521179536343417 18.447955364581034" fill="#fff417" stroke="none" /><path d="M 95.35216902796891 79.52079915486377 l -3.8893518102208215 -17.13720170940277 a38.573011692149564,38.573011692149564 0 0,0 0.6469935439126311,-0.14100923157131046 l 3.594595849689072 17.201442399107798" fill="#ffe315" stroke="none" /><path d="M 97.48249496171623 79.15144685158666 l -2.6460141953609067 -21.912793318993813 a43.071970962353845,43.071970962353845 0 0,0 0.7348162306240121,-0.08233769132140617 l 2.2694620631360953 21.95498677082219" fill="#e5ff1a" stroke="none" /><path d="M 99.27912038922189 79.0123766808444 l -0.6559348162699056 -19.09682648803567 a40.10808814081974,40.10808814081974 0 0,0 0.6883057601918344,-0.01772831479392347 l 0.32801574200732725 19.10527252017964" fill="#fff617" stroke="none" /><path d="M 99.63950707515114 79.00309439819443 l -0.21153459626547536 -12.320829739347705 a33.32264550944366,33.32264550944366 0 0,0 0.5720275211143245,-0.004910168290391288 l 3.018177676033537e-15 12.32264550944366" fill="#ffa00e" stroke="none" /></svg>