<?xml version="1.0" encoding="utf-8" ?>
<svg baseProfile="full" height="200mm" version="1.1" viewBox="0,0,200,200" width="200mm" xmlns="http://www.w3.org/2000/svg" xmlns:ev="http://www.w3.org/2001/xml-events" xmlns:xlink="http://www.w3.org/1999/xlink"><defs /><rect fill="#1a1a1a" height="200" width="200" x="0" y="0" /><text alignment-baseline="middle" fill="#e1ed5e" style="dominant-baseline: central; font-size:9.0px; font-family:Arial;" text-anchor="middle" x="100.0" y="100.0">2021</text><line stroke="#e1ed5e" stroke-width="0.3" x1="100.0" x2="100.0" y1="15.0" y2="10.0" /><path d="M 100.0 14.0 a86.0,86.0 0 0,1 42.46469731375804,11.215312516191453" fill="none" id="id25" stroke="none" /><text fill="#e1ed5e" style="font-size:6.75px; font-family:Arial;" text-anchor="middle"><textPath startOffset="22.20632615414155" xlink:href="#id25">January</textPath></text><path d="M 100.0 79.0 l 0.0 -37.32809951770809 a58.32809951770809,58.32809951770809 0 0,0 1.0040223508912787,0.008641937355290038 l -0.6425418716187503 37.322568956961355" fill="#3eff2d" stroke="none" /><path d="M 100.36148047927253 79.00311137660856 l 0.3314704034317571 -19.253728878565653 a40.25658194897693,40.25658194897693 0 0,0 0.6927455464026352,0.017891573665139736 l -0.6628425850292601 19.24517051275815" fill="#fffa17" stroke="none" /><path d="M 102.88285421437855 79.19881850522331 l 1.4739051146165054 -10.634935211882201 a31.736584338039012,31.736584338039012 0 0,0 0.5404755721202308,0.0796520499288219 l -1.6567496671653918 10.607988677792411" fill="#ff8f0d" stroke="none" /><path d="M 107.4271985657038 80.35727306442388 l 3.060329095592454 -8.093658493971454 a29.652914075059684,29.652914075059684 0 0,0 0.4758824404815924,0.1846349936295596 l -3.199194701073713 8.039780796451348" fill="#ff730a" stroke="none" /><path d="M 107.76421540070413 80.48803036053334 l 8.03708175231288 -20.197700224393373 a42.73802607063992,42.73802607063992 0 0,0 0.6811955575140575,0.27787677171182185 l -8.383561179415324 20.05636256649797" fill="#e6ff1a" stroke="none" /><path d="M 108.09893153111575 80.62456947434976 l 9.367557705132864 -22.410420783717502 a45.28946473395969,45.28946473395969 0 0,0 0.7166868920036916,0.3068479247933487 l -9.75192835492687 22.245853330961364" fill="#c9ff1d" stroke="none" /><path d="M 108.76106565485865 80.91482961587045 l 5.329370771625964 -11.609540805150207 a33.77433483700458,33.77433483700458 0 0,0 0.5262713455967114,0.2470914532859787 l -5.528420328522273 11.516084369224226" fill="#ffa90f" stroke="none" /><path d="M 109.41281617654863 81.2277094730956 l 11.371160181863537 -22.677880727527313 a46.369066955123785,46.369066955123785 0 0,0 0.7104171901478987,0.3639032775471205 l -11.759837859600191 22.478784924667693" fill="#bcff1f" stroke="none" /><path d="M 110.05341064243156 81.56283822128135 l 4.457715307245424 -8.175098104147091 a30.311468991135584,30.311468991135584 0 0,0 0.45593632757807995,0.2537280726654144 l -4.59777572389554 8.097154633921496" fill="#ff7c0b" stroke="none" /><line stroke="#e1ed5e" stroke-width="0.3" x1="143.23703022742887" x2="145.7803849466894" y1="26.81831364943548" y2="22.513508569990506" /><path d="M 143.74570117128098 25.957352633546492 a86.0,86.0 0 0,1 28.547481713284135,27.462654790039103" fill="none" id="id26" stroke="none" /><text fill="#e1ed5e" style="font-size:6.75px; font-family:Arial;" text-anchor="middle"><textPath startOffset="19.985693538727396" xlink:href="#id26">February</textPath></text><path d="M 110.68208982089419 81.91981866633111 l 4.1941522644210565 -7.098894949696544 a29.24531519858249,29.24531519858249 0 0,0 0.4312123319477621,0.25980060513081304 l -4.315726662586456 7.025647735107117" fill="#ff6d0a" stroke="none" /><path d="M 110.99172775467656 82.1063720568725 l 2.0540181131519426 -3.343772400981117 a24.92425843679023,24.92425843679023 0 0,0 0.3636340679217409,0.22770761997274067 l -2.1112713334459468 3.3079204396854323" fill="#ff3204" stroke="none" /><path d="M 111.60114157652 82.49532879139004 l 1.3379440387927464 -2.018790163029119 a23.42190172659507,23.42190172659507 0 0,0 0.33414722882662834,0.22561770050482827 l -1.3724959620259165 1.9954605502256206" fill="#ff1d02" stroke="none" /><path d="M 113.89432698308785 84.25364557470405 l 8.315430143342526 -9.423825306201449 a33.56800946334034,33.56800946334034 0 0,0 0.42997265304344656,0.3860336932875416 l -8.476413783981963 9.279292604144612" fill="#ffa70f" stroke="none" /><path d="M 114.68862486808459 84.99185889309783 l 11.482821103990323 -11.73260267599671 a37.41673372078169,37.41673372078169 0 0,0 0.4564203644731662,0.4544603503782001 l -11.683077268630809 11.53320647496839" fill="#ffd714" stroke="none" /><path d="M 115.68641384162765 86.03803664274999 l 5.653929581578091 -5.0323776000974245 a28.569130995260032,28.569130995260032 0 0,0 0.3237945536848655,0.37015314841002145 l -5.739715998840804 4.934308895484455" fill="#ff6409" stroke="none" /><path d="M 115.9244219780498 86.31012108654704 l 23.484326301640046 -20.188964087778036 a51.969466459393416,51.969466459393416 0 0,0 0.5773297594149395,0.6833763359672292 l -23.828366674542103 19.7817288021817" fill="#7fff26" stroke="none" /><line stroke="#e1ed5e" stroke-width="0.3" x1="172.23445277983987" x2="176.4835382374775" y1="55.19839476539836" y2="52.563006222186495" /><path d="M 173.08426987136738 54.67131705675599 a86.0,86.0 0 0,1 12.851231095245387,41.99856678651699" fill="none" id="id27" stroke="none" /><text fill="#e1ed5e" style="font-size:6.75px; font-family:Arial;" text-anchor="middle"><textPath startOffset="22.20632615414155" xlink:href="#id27">March</textPath></text><path d="M 118.56541770881063 90.18545643968196 l 11.401240697319261 -6.0272262774032335 a33.896346228185294,33.896346228185294 0 0,0 0.26825014254586027,0.5181738930931026 l -11.50330027302524 5.830079662049786" fill="#ffab0f" stroke="none" /><path d="M 119.7369772167798 92.82701384747503 l 28.313231769430914 -10.289844143038094 a51.12507237696745,51.12507237696745 0 0,0 0.2934747604009016,0.8296926673896015 l -28.486159610641625 9.800953849221877" fill="#88ff25" stroke="none" /><path d="M 120.45610955862082 95.25157060432595 l 4.149310425015043 -0.9631698313629197 a25.259632980338353,25.259632980338353 0 0,0 0.09467023322957516,0.42438809260090854 l -4.1652750452466565 0.8916035692120473" fill="#ff3705" stroke="none" /><path d="M 120.83666639777658 97.38593545837742 l 0.41300189541256394 -0.051813163862723347 a21.416239317657325,21.416239317657325 0 0,0 0.042740334752079924,0.3661730870732546 l -0.41383258316823274 0.04469633846461605" fill="#ff0000" stroke="none" /><path d="M 120.87857604477298 97.74499172005257 l 6.008487476049358 -0.648951776184172 a27.043431157683074,27.043431157683074 0 0,0 0.04600329011272445,0.46324685338708055 l -6.018767891844311 0.5454293920926564" fill="#ff4f07" stroke="none" /><path d="M 120.94382443527127 98.46500227214037 l 14.077586316239934 -1.031762994192435 a35.115345244356256,35.115345244356256 0 0,0 0.03899376656068078,0.6032163096441335 l -14.09326067380503 0.7892876202952661" fill="#ffba11" stroke="none" /><line stroke="#e1ed5e" stroke-width="0.3" x1="184.98032266829074" x2="189.97916517819016" y1="98.17113171792111" y2="98.06355123074" /><path d="M 185.9800911702706 98.14961562048488 a86.0,86.0 0 0,1 -9.607161424134198,41.387399972396054" fill="none" id="id28" stroke="none" /><text fill="#e1ed5e" style="font-size:6.75px; font-family:Arial;" text-anchor="middle"><textPath startOffset="21.466115282336823" xlink:href="#id28">April</textPath></text><path d="M 120.99980553446 99.90962569577887 l 13.998325775614106 -0.06024288892370294 a34.99845540500409,34.99845540500409 0 0,0 -0.0025927234255606084,0.6024576145914285 l -13.997288754899042 -0.18072420387141028" fill="#ffb911" stroke="none" /><path d="M 120.99824983174949 100.27111621757518 l 16.06301819365763 0.20739560536712612 a37.064357018782346,37.064357018782346 0 0,0 -0.013727821214885383,0.6378779094180513 l -16.057068309757735 -0.48386333057529224" fill="#ffd313" stroke="none" /><path d="M 120.9904718944345 100.63252640178507 l 26.370084114547677 0.7946355138479296 a47.382054162028176,47.382054162028176 0 0,0 -0.03158322378081739,0.815022668882823 l -26.352498757915658 -1.2484354297447589" fill="#b1ff20" stroke="none" /><path d="M 120.8583938346157 102.4346265915055 l 13.624241200838883 1.5902442047862704 a34.71673521394548,34.71673521394548 0 0,0 -0.07439050897639753,0.5929655500165639 l -13.594849182615638 -1.824527509090229" fill="#ffb510" stroke="none" /><path d="M 120.49622156327973 104.57218783832717 l 20.066946426257335 4.476427429281512 a41.56017367154047,41.56017367154047 0 0,0 -0.16176690836855506,0.6968876074183985 l -19.986918951958227 -4.821183694048475" fill="#f4ff19" stroke="none" /><path d="M 120.32669344350535 105.2749913415812 l 59.9456817055662 15.556536671392509 a82.93133769226557,82.93133769226557 0 0,0 -0.3704737295457672,1.378670567250015 l -59.66901989967866 -16.586098171818072" fill="#4cdcff" stroke="none" /><path d="M 119.79798401119884 107.00284435728193 l 17.376295035264214 6.1462565870007255 a39.431280454319975,39.431280454319975 0 0,0 -0.23184792826701514,0.6379459238678236 l -17.267922845991972 -6.44445030787468" fill="#fff016" stroke="none" /><path d="M 119.67450827220406 107.3425965602758 l 9.768070680551132 3.6454787681212375 a31.42615558434965,31.42615558434965 0 0,0 -0.19350388987813677,0.5051775957291159 l -9.703872511079489 -3.8130799306834975" fill="#ff8b0c" stroke="none" /><path d="M 119.12269723197855 108.67885076344098 l 18.650234976374406 8.4644234074041 a41.481155443328625,41.481155443328625 0 0,0 -0.3006897514898674,0.6476589740930933 l -18.50177060804471 -8.784202448776023" fill="#f5ff19" stroke="none" /><path d="M 118.97047184881838 109.00673069616215 l 11.959749979118248 5.6782060095178135 a34.2392463172774,34.2392463172774 0 0,0 -0.257359691768994,0.5302371924668514 l -11.86023703073454 -5.883232157949941" fill="#ffaf10" stroke="none" /><path d="M 118.64920377521936 109.65438752849418 l 5.421677714748788 2.806713806320124 a27.10509882255739,27.10509882255739 0 0,0 -0.21806373620892738,0.41249440944265914 l -5.372561470314968 -2.8996232308489174" fill="#ff5007" stroke="none" /><line stroke="#e1ed5e" stroke-width="0.3" x1="174.80103733775053" x2="179.2010983576182" y1="140.37084112569926" y2="142.7455964860345" /><path d="M 175.68104954172406 140.8457921977663 a86.0,86.0 0 0,1 -30.038265399797805,32.042727171017184" fill="none" id="id29" stroke="none" /><text fill="#e1ed5e" style="font-size:6.75px; font-family:Arial;" text-anchor="middle"><textPath startOffset="22.206326154141568" xlink:href="#id29">May</textPath></text><path d="M 118.48025628344425 109.97397251340804 l 31.708629073787254 17.113452863915715 a57.03203334068855,57.03203334068855 0 0,0 -0.47370152531258325,0.859905864351488 l -31.409351139023162 -17.65672924666501" fill="#4bff2c" stroke="none" /><path d="M 118.30583269289576 110.29060199501023 l 8.24102167169953 4.63268049470514 a30.453896908653213,30.453896908653213 0 0,0 -0.2608129794477347,0.45474941365859484 l -8.160056696099414 -4.773849754222048" fill="#ff7e0b" stroke="none" /><path d="M 116.0416608686014 113.55231037782055 l 15.766442883207512 13.319800814741775 a41.63971450708174,41.63971450708174 0 0,0 -0.467271934425144,0.5435428252746216 l -15.534828439211587 -13.589220739177925" fill="#f3ff19" stroke="none" /><path d="M 114.29624159901734 115.38237550388516 l 13.953699336388064 15.013809145152376 a41.49683366321193,41.49683366321193 0 0,0 -0.5274058857338033,0.4817727719449739 l -13.693193901187398 -15.251774683683932" fill="#f5ff19" stroke="none" /><path d="M 112.92097659922987 116.55440617244103 l 8.34653153610578 10.693609118371025 a34.56531845036143,34.56531845036143 0 0,0 -0.4721808025658326,0.3620481045851429 l -8.161222005046454 -10.83569656478354" fill="#ffb310" stroke="none" /><path d="M 112.04921762599082 117.19931262002967 l 0.8327445157684732 1.1886774481043894 a22.451350234841485,22.451350234841485 0 0,0 -0.3184276237318071,0.21901742318083023 l -0.8121600074137828 -1.2028356606503139" fill="#ff0f01" stroke="none" /><path d="M 111.45004920935366 117.60387380957326 l 1.7879262468915782 2.7488465294447355 a24.27915194932534,24.27915194932534 0 0,0 -0.352299972848913,0.22485451116847968 l -1.7403444719957348 -2.779215469437024" fill="#ff2904" stroke="none" /><line stroke="#e1ed5e" stroke-width="0.3" x1="143.8653032363475" x2="146.44561519142675" y1="172.8068346515853" y2="177.08958963109032" /><path d="M 144.38136562736335 173.6633856474863 a86.0,86.0 0 0,1 -40.68145358897372,12.25698825130547" fill="none" id="id30" stroke="none" /><text fill="#e1ed5e" style="font-size:6.75px; font-family:Arial;" text-anchor="middle"><textPath startOffset="21.466115282336833" xlink:href="#id30">June</textPath></text><path d="M 109.2508944713604 118.85261126421891 l 4.309871601669782 8.783186767130887 a30.783627293043352,30.783627293043352 0 0,0 -0.47771400799071984,0.22933175446800272 l -4.158044925678829 -8.85607279809845" fill="#ff820c" stroke="none" /><path d="M 108.92500713936063 119.00905698771935 l 8.149523439064161 17.35738168687034 a40.17533392949281,40.17533392949281 0 0,0 -0.6285182369794985,0.2885218957244607 l -7.849537206317244 -17.495090652928877" fill="#fff917" stroke="none" /><path d="M 107.2578585660854 119.70592522655815 l 0.4959571405912027 1.3465809837817146 a22.435010045674222,22.435010045674222 0 0,0 -0.36353309883896845,0.13035003535551945 l -0.47270448112249946 -1.354918560177194" fill="#ff0f01" stroke="none" /><path d="M 106.91757812671514 119.82793768551818 l 4.461736724158158 12.788729829323257 a34.54469288109273,34.54469288109273 0 0,0 -0.5631282828374261,0.1910436880824658 l -4.240938708383505 -12.863636504303846" fill="#ffb310" stroke="none" /><path d="M 104.48393922423573 120.51570834832081 l 3.4918511094146227 15.976532101351415 a37.35367243636219,37.35367243636219 0 0,0 -0.6293356311883348,0.1318834004312431 l -3.21632401679691 -16.0342714825092" fill="#ffd714" stroke="none" /><path d="M 104.13013068566511 120.58985236759428 l 7.402258852966384 36.902323090716344 a58.637413375761305,58.637413375761305 0 0,0 -0.9913419402924565,0.18999304227075278 l -6.765949298102224 -37.024273331335564" fill="#3bff2e" stroke="none" /><path d="M 103.7750983002368 120.6578951692458 l 4.754355218045818 26.01653357889682 a47.4473800782086,47.4473800782086 0 0,0 -0.8046872959909791,0.13990520094746522 l -4.305818950582789 -26.09451735836529" fill="#b0ff20" stroke="none" /><path d="M 103.41894727170886 120.7198165907248 l 3.8976589948628018 23.620949107641874 a44.940363037891515,44.940363037891515 0 0,0 -0.76433742635944,0.11937378660424537 l -3.4904857048948448 -23.684541201593223" fill="#cdff1d" stroke="none" /><path d="M 103.06178313531738 120.77559828337769 l 2.976459158053407 20.19663609133709 a41.41478431248932,41.41478431248932 0 0,0 -0.7061642935460287,0.09786793650178233 l -2.628366273320548 -20.244878593331475" fill="#f6ff19" stroke="none" /><path d="M 102.70371172650421 120.8252237178851 l 3.219893347011229 24.80109053117808 a46.00923438855772,46.00923438855772 0 0,0 -0.7862596432597505,0.09520509305267515 l -2.792506280700098 -24.852841152956106" fill="#c0ff1e" stroke="none" /><path d="M 102.34483914955558 120.86867818915974 l 0.5281175914749793 4.700158671700053 a25.729735693416973,25.729735693416973 0 0,0 -0.4405511549193374,0.04566492851238407 l -0.4471338399500393 -4.7085529686681955" fill="#ff3d05" stroke="none" /><path d="M 101.98527174616119 120.90594882070398 l 1.9905515577721922 20.961547995746887 a42.05584930327318,42.05584930327318 0 0,0 -0.7212691951799648,0.06223414110262221 l -1.6294380448506856 -20.992706389128173" fill="#eeff19" stroke="none" /><line stroke="#e1ed5e" stroke-width="0.3" x1="102.19456741930631" x2="102.32365962044197" y1="184.97166512339345" y2="189.96999836594603" /><path d="M 102.22038585953345 185.97133177190398 a86.0,86.0 0 0,1 -42.740103519485714,-10.115201625700543" fill="none" id="id31" stroke="none" /><text fill="#e1ed5e" style="font-size:6.75px; font-family:Arial;" text-anchor="middle"><textPath startOffset="22.20632615414155" xlink:href="#id31">July</textPath></text><path d="M 100.54218724476979 120.99299961872073 l 0.1778607895959618 6.886608868415428 a27.88890529525655,27.88890529525655 0 0,0 -0.4800083132605496,0.008263778421861826 l -0.059292786442744216 -6.88865012411645" fill="#ff5b08" stroke="none" /><path d="M 100.18074693466247 120.99922214144158 l 0.09298610193289124 10.803147584228629 a31.803547757185022,31.803547757185022 0 0,0 -0.547466073190686,0.0 l 0.0929861019328838 -10.803147584228629" fill="#ff900d" stroke="none" /><path d="M 99.45781275523022 120.99299961872073 l -0.3491271462185319 13.517887257865656 a34.52239496836982,34.52239496836982 0 0,0 -0.59391612921532,-0.020455672352639585 l 0.5817636271084949 -13.509874787086922" fill="#ffb310" stroke="none" /><path d="M 98.73552117531835 120.96189622390904 l -0.8320112781461239 13.792665981584848 a34.817737790482575,34.817737790482575 0 0,0 -0.5979320396515596,-0.041236894240342915 l 1.0693060785766135 -13.77630074282822" fill="#ffb710" stroke="none" /><path d="M 98.37488393609728 120.93702456842531 l -1.2988105466063622 16.733099209371392 a37.78342986360778,37.78342986360778 0 0,0 -0.6479960457424889,-0.05591182545182335 l 1.586650910090393 -16.708263131640905" fill="#ffdc14" stroke="none" /><path d="M 98.01472825383883 120.90594882070398 l -1.9373779591146545 20.401602217897395 a41.493384454837596,41.493384454837596 0 0,0 -0.7104604050700853,-0.07364212588284368 l 2.2882709607903333 -20.365230723558792" fill="#f5ff19" stroke="none" /><path d="M 97.2962882734958 120.8252237178851 l -1.8823579195088818 14.498781214959676 a35.62046264850758,35.62046264850758 0 0,0 -0.607365202053713,-0.08417528268031554 l 2.131651712749426 -14.464231366786755" fill="#ffc111" stroke="none" /><path d="M 96.93821686468263 120.77559828337769 l -3.79109817441346 25.724334233847248 a47.00218831450012,47.00218831450012 0 0,0 -0.7994045713265848,-0.1248505534558525 l 4.233338609348562 -25.655265373044287" fill="#b5ff1f" stroke="none" /><path d="M 96.58105272829116 120.7198165907248 l -2.5918840697462926 15.7075726186098 a36.91997803390146,36.91997803390146 0 0,0 -0.6261470547620632,-0.1088636914682098 l 2.8618800959804056 -15.660630348620584" fill="#ffd113" stroke="none" /><path d="M 95.51606077576429 120.51570834832081 l -5.8579619214130725 26.802378954135868 a48.435073090367936,48.435073090367936 0 0,0 -0.8129708250970794,-0.18502951298632392 l 6.318452895903015 -26.697572707571858" fill="#a5ff21" stroke="none" /><path d="M 93.42475214034765 119.94407469862007 l -4.401592639849104 13.350932812848862 a35.05778875714023,35.05778875714023 0 0,0 -0.5714924851362922,-0.19388127962908713 l 4.630754857922622 -13.273188546321652" fill="#ffba11" stroke="none" /><path d="M 93.08242187328487 119.8279376855182 l -6.26919899539009 17.969480754926497 a40.031686594873136,40.031686594873136 0 0,0 -0.6486666620588816,-0.23258878655991572 l 6.577585218078697 -17.858904427326625" fill="#fff717" stroke="none" /><path d="M 91.07499286063937 119.00905698771935 l -1.2831788357135798 2.7329972102702644 a24.01924190414884,24.01924190414884 0 0,0 -0.3727412695618977,-0.1789384608393616 l 1.3300327732757196 -2.71050447293134" fill="#ff2503" stroke="none" /><line stroke="#e1ed5e" stroke-width="0.3" x1="58.666819895761336" x2="56.23545636021788" y1="174.27360380694188" y2="178.64263932499728" /><path d="M 58.180547188652646 175.14741091055294 a86.0,86.0 0 0,1 -31.652253787137756,-30.449443065178592" fill="none" id="id32" stroke="none" /><text fill="#e1ed5e" style="font-size:6.75px; font-family:Arial;" text-anchor="middle"><textPath startOffset="22.20632615414155" xlink:href="#id32">August</textPath></text><path d="M 89.4739219176387 118.17145234162733 l -4.804176592005311 8.293579555397198 a30.584548741014057,30.584548741014057 0 0,0 -0.453280677062001,-0.2678062137261462 l 4.946225140095694 -8.209654769377302" fill="#ff7f0b" stroke="none" /><path d="M 88.8546689885994 117.79835938074946 l -5.417665584998801 8.65165502827084 a31.207949604062733,31.207949604062733 0 0,0 -0.4528395316743059,-0.2890236144754321 l 5.56578691872003 -8.557116984971604" fill="#ff880c" stroke="none" /><path d="M 87.95078237400918 117.19931262002967 l -5.199490675333034 7.421864918190351 a30.061941411570693,30.061941411570693 0 0,0 -0.4212575156777706,-0.30055605235534083 l 5.326475518859689 -7.331264603990791" fill="#ff780b" stroke="none" /><path d="M 86.51685102203217 116.09983520530335 l -12.923866740566151 15.432012586853155 a41.128918103283794,41.128918103283794 0 0,0 -0.5388564419642027,-0.45922515008275033 l 13.18758865910741 -15.207263046547453" fill="#f9ff18" stroke="none" /><path d="M 85.97065885151581 115.62618273729859 l -5.191010077127533 5.781858976685975 a28.77023029562984,28.77023029562984 0 0,0 -0.3656565441831374,-0.33401858347831054 l 5.289766170777527 -5.691647626621086" fill="#ff6709" stroke="none" /><path d="M 85.70375840098266 115.38237550388516 l -28.631998182769493 30.80726807975819 a63.05804425405684,63.05804425405684 0 0,0 -0.7887185037589964,-0.7457825746309593 l 29.158052520919306 -30.309850868381304" fill="#33ff55" stroke="none" /><path d="M 84.67929136418377 114.36230785411682 l -15.02629030087859 14.086307124334287 a41.59644262020383,41.59644262020383 0 0,0 -0.48519990640087535,-0.5265886702528179 l 15.266536615275196 -13.825567199280126" fill="#f4ff19" stroke="none" /><path d="M 83.28015986056508 112.70617746262583 l -32.83179906699226 24.950397963348944 a62.23650553217187,62.23650553217187 0 0,0 -0.6408544343619608,-0.8585292417627637 l 33.256414768049304 -24.381555842076875" fill="#32ff4b" stroke="none" /><path d="M 83.06392112726016 112.41649034213515 l -16.39606042411183 12.02058206240004 a41.33040064902853,41.33040064902853 0 0,0 -0.41570551458510163,-0.5773786011269211 l 16.60054573107254 -11.736569855821978" fill="#f7ff19" stroke="none" /><line stroke="#e1ed5e" stroke-width="0.3" x1="26.63291911575756" x2="22.317208475507996" y1="142.92168965132927" y2="145.44649492493687" /><path d="M 25.769776987707644 143.4266507060508 a86.0,86.0 0 0,1 -11.730757126820373,-40.83630448921669" fill="none" id="id33" stroke="none" /><text fill="#e1ed5e" style="font-size:6.75px; font-family:Arial;" text-anchor="middle"><textPath startOffset="21.46611528233685" xlink:href="#id33">September</textPath></text><path d="M 80.32549172779594 107.34259656027581 l -13.89397677401135 5.185281617103363 a35.830028187614374,35.830028187614374 0 0,0 -0.21067329565092024,-0.5796824290511859 l 13.981174330667494 -4.94535139104606" fill="#ffc312" stroke="none" /><path d="M 80.20201598880116 107.00284435728193 l -5.665815428383288 2.0040840309604957 a27.00981008615555,27.00981008615555 0 0,0 -0.15126672955304576,-0.4396519224677142 l 5.699472988879563 -1.9062594054034847" fill="#ff4f07" stroke="none" /><path d="M 80.0844068197444 106.66101706037122 l -5.467159040157503 1.8285591249351132 a26.764846610601133,26.764846610601133 0 0,0 -0.14237336984598198,-0.43818017650714425 l 5.497824661019734 -1.7341800484501655" fill="#ff4c07" stroke="none" /><path d="M 79.97269907076064 106.31721596034903 l -5.7695194843840785 1.8198808066584575 a27.049737286125023,27.049737286125023 0 0,0 -0.13624466741022428,-0.44525545616031387 l 5.799990924300433 -1.7202983779460959" fill="#ff5007" stroke="none" /><path d="M 79.86692584326677 105.97154293290107 l -5.6849537571377775 1.6861779362667324 a26.929746643284826,26.929746643284826 0 0,0 -0.127989857228169,-0.445549483703072 l 5.71313625125205 -1.5880709770590644" fill="#ff4e07" stroke="none" /><path d="M 79.76711848015287 105.62410040840567 l -5.660367693715972 1.5734029889280354 a26.874977395159164,26.874977395159164 0 0,0 -0.12005682512910759,-0.4467761085405953 l 5.686612595186852 -1.4757359472119012" fill="#ff4d07" stroke="none" /><path d="M 79.67330655649465 105.27499134158121 l -5.527134516831692 1.4343497038057327 a26.710216724429984,26.710216724429984 0 0,0 -0.11165975338722824,-0.446025209948561 l 5.551005584513981 -1.3389966544597798" fill="#ff4b07" stroke="none" /><path d="M 79.58551787078972 104.9243191809786 l -20.356125716472224 4.9102426248964886 a41.93996983809127,41.93996983809127 0 0,0 -0.16324520949786508,-0.7032560899927324 l 20.437631491900646 -4.559117877555182" fill="#f0ff19" stroke="none" /><path d="M 79.50377843672027 104.57218783832718 l -22.46125026599786 5.010535965507258 a44.013327316436246,44.013327316436246 0 0,0 -0.1585862247778085,-0.7408620460892036 l 22.54417052950011 -4.623160100001891" fill="#d7ff1c" stroke="none" /><path d="M 79.35854240842038 103.8639653848113 l -5.896380283370283 1.103769402405029 a26.99880049174861,26.99880049174861 0 0,0 -0.08157952113218622,-0.4575412784622962 l 5.9145062468416585 -1.0021093732095192" fill="#ff4f07" stroke="none" /><path d="M 79.29508885075956 103.50808413554451 l -5.844876941512043 0.9903119083648187 a26.9281788212965,26.9281788212965 0 0,0 -0.07349885563248383,-0.4576774441836207 l 5.861057551505817 -0.8895552344879843" fill="#ff4e07" stroke="none" /><path d="M 79.23777060512086 103.15116336523772 l -5.792234422844922 0.8791096836951228 a26.858567525014642,26.858567525014642 0 0,0 -0.0654401950358157,-0.4576885716641264 l 5.806508668897337 -0.7792756400505958" fill="#ff4d07" stroke="none" /><path d="M 79.18660465613746 102.79330883721812 l -15.98380031812431 2.1451421040782854 a37.12710473880418,37.12710473880418 0 0,0 -0.07955541329906576,-0.6341349192628989 l 16.018357240670223 -1.8696894305279776" fill="#ffd413" stroke="none" /><path d="M 79.1416061653843 102.43462659150553 l -5.74286089128962 0.6703163219618283 a26.781848769052356,26.781848769052356 0 0,0 -0.0495052252743571,-0.45835690258680656 l 5.753548418065029 -0.5713630974902397" fill="#ff4c07" stroke="none" /><path d="M 79.10278846688536 102.07522291339032 l -5.495534610896448 0.5457407237223887 a26.522565852671185,26.522565852671185 0 0,0 -0.04120521041482157,-0.45469606335275686 l 5.504114417588346 -0.45106327182106565" fill="#ff4806" stroke="none" /><path d="M 79.07016306316243 101.71520430193888 l -5.809096039755265 0.476056576447931 a26.82856986430459,26.82856986430459 0 0,0 -0.03375729247282062,-0.46059143549786963 l 5.816429890892421 -0.3759920044533007" fill="#ff4d07" stroke="none" /><path d="M 79.04373962182676 101.35467743843564 l -5.636749272599177 0.3643768939644301 a26.64851421906704,26.64851421906704 0 0,0 -0.025650653132992626,-0.4580096428237406 l 5.642186276619701 -0.2672955348052519" fill="#ff4a06" stroke="none" /><path d="M 79.0095281055655 100.63252640178507 l -27.639374081330338 0.8328842687853517 a48.651920291598294,48.651920291598294 0 0,0 -0.018019599346765017,-0.8372999749881195 l 27.649615743362112 -0.3569944780071034" fill="#a3ff22" stroke="none" /><line stroke="#e1ed5e" stroke-width="0.3" x1="15.007084014347285" x2="10.007500721073583" y1="101.09737516637583" y2="101.16192664675087" /><path d="M 14.007167355692545 101.11028546245083 a86.0,86.0 0 0,1 10.666146001902534,-42.60595125391555" fill="none" id="id34" stroke="none" /><text fill="#e1ed5e" style="font-size:6.75px; font-family:Arial;" text-anchor="middle"><textPath startOffset="22.20632615414155" xlink:href="#id34">October</textPath></text><path d="M 79.00175016825051 100.2711162175752 l -26.26673780772528 0.33913962637507916 a47.26892709544801,47.26892709544801 0 0,0 -0.0035017332383177583,-0.8136794819279013 l 26.2686838382531 0.11304933375649746" fill="#b2ff20" stroke="none" /><path d="M 79.00486145842228 99.54816195383935 l -62.98541562473312 -1.3555141384819447 a84.0,84.0 0 0,0 0.04355322217741975,-1.4453194103000224 l 62.95275070810006 2.4395036962069616" fill="#4dd2ff" stroke="none" /><path d="M 79.03285615573316 98.82574320788736 l -6.188355903235328 -0.3465764820119474 a27.19805324622105,27.19805324622105 0 0,0 0.03020202512058936,-0.46721196088277106 l 6.181473287110325 0.45304750714773023" fill="#ff5207" stroke="none" /><path d="M 79.05617556472873 98.46500227214037 l -6.077335660821836 -0.44541513703158647 a27.093636301798266,27.093636301798266 0 0,0 0.03809302842940029,-0.4648314329415253 l 6.068768148572938 0.5499604871808902" fill="#ff5007" stroke="none" /><path d="M 79.08570108090925 98.10471618934814 l -5.986776055131062 -0.5425302458946286 a27.011308227166623,27.011308227166623 0 0,0 0.04594864614084075,-0.46269659604745567 l 5.976550283307993 0.6455023726465146" fill="#ff4f07" stroke="none" /><path d="M 79.12142395522702 97.74499172005258 l -6.352106729839337 -0.6860646645719658 a27.389048804888287,27.389048804888287 0 0,0 0.054660255570492526,-0.46829568927243337 l 6.339356121265256 0.7953040921692609" fill="#ff5407" stroke="none" /><path d="M 79.26566170972629 96.67025291283419 l -5.663159906314227 -0.9094522303154277 a26.73571996210682,26.73571996210682 0 0,0 0.07688192187753544,-0.4537614549572897 l 5.646666122916468 1.0067994735885455" fill="#ff4b07" stroke="none" /><path d="M 79.32604984820605 96.31383870115002 l -5.678736201061904 -1.0125175622964522 a26.768295818975457,26.768295818975457 0 0,0 0.08478446755075383,-0.45292201587852077 l 5.660466009601288 1.1101176556375456" fill="#ff4c07" stroke="none" /><path d="M 79.3925641242962 95.95851677861259 l -2.9040303863516206 -0.5695318016093759 a23.959351104194628,23.959351104194628 0 0,0 0.08285452126697458,-0.40402807088207526 l 2.8937965691696514 0.6194355286548537" fill="#ff2403" stroke="none" /><path d="M 80.38941819471856 92.48833698450439 l -19.65902693451155 -7.530219501434284 a42.05187748756941,42.05187748756941 0 0,0 0.264739497306742,-0.673733144128294 l 19.52649388732312 7.867501650458341" fill="#eeff19" stroke="none" /><path d="M 80.52162464483688 92.15188598940014 l -5.167167696253665 -2.0819252351730717 a26.570819929423124,26.570819929423124 0 0,0 0.17458080532915649,-0.4227612677298199 l 5.130565204038306 2.1705610733562026" fill="#ff4906" stroke="none" /><path d="M 80.65960295795067 91.81776055985345 l -5.596694355788295 -2.3677638671436605 a27.076947707744708,27.076947707744708 0 0,0 0.18529566355747182,-0.42768793888775425 l 5.555107982388145 2.463750950618014" fill="#ff5007" stroke="none" /><path d="M 80.803312248108 91.48605970444005 l -5.077473541710509 -2.2519148691236026 a26.554444899767233,26.554444899767233 0 0,0 0.1889129782071223,-0.4162447061152044 l 5.037958246540034 2.3389815840808783" fill="#ff4906" stroke="none" /><path d="M 80.95270993114464 91.15688171328213 l -5.107100806636815 -2.3710825199815764 a26.630675888888703,26.630675888888703 0 0,0 0.19661276614420112,-0.4141166280064485 l 5.065529846650863 2.458641563628557" fill="#ff4a06" stroke="none" /><path d="M 81.10775173730289 90.83032412892265 l -2.667777390233715 -1.2948513921941982 a23.96541334921617,23.96541334921617 0 0,0 0.18332398523734258,-0.36956996765726885 l 2.6450933920429596 1.3405809483504285" fill="#ff2503" stroke="none" /><path d="M 81.26839172434947 90.50648371742162 l -7.595234920404392 -3.8494017879179077 a29.515015421063893,29.515015421063893 0 0,0 0.2335770068149802,-0.4511964310984933 l 7.527848480429299 3.9795709412767364" fill="#ff710a" stroke="none" /><path d="M 81.6062741919709 89.86733742301443 l -36.0332669587814 -19.849862907078794 a62.13895216400911,62.13895216400911 0 0,0 0.524163835902352,-0.9324289762977559 l 35.68624548158662 20.467175393311333" fill="#32ff4a" stroke="none" /><line stroke="#e1ed5e" stroke-width="0.3" x1="26.266209847984243" x2="21.928928074336255" y1="57.711370442889674" y2="55.22380399835377" /><path d="M 25.398753493254645 57.213857153982495 a86.0,86.0 0 0,1 29.58750427330803,-30.492523968695096" fill="none" id="id35" stroke="none" /><text fill="#e1ed5e" style="font-size:6.75px; font-family:Arial;" text-anchor="middle"><textPath startOffset="21.46611528233685" xlink:href="#id35">November</textPath></text><path d="M 84.31358615837235 86.03803664274999 l -0.6402118641885228 -0.5698316185536382 a21.857076020287117,21.857076020287117 0 0,0 0.2525599282791055,-0.27888298086063606 l 0.6303082952933723 0.5807673866838303" fill="#ff0601" stroke="none" /><path d="M 84.80347519578584 85.50635884689758 l -2.052971846823876 -1.9580159035463025 a23.836991308127622,23.836991308127622 0 0,0 0.2857439313359041,-0.29448423884232383 l 2.018963651784858 1.99306433793875" fill="#ff2303" stroke="none" /><path d="M 85.31137513191541 84.99185889309783 l -1.9743900810577977 -2.0173382602320817 a23.82274154827813,23.82274154827813 0 0,0 0.29553444554366065,-0.2843039024613695 l 1.9393723919017096 2.05102524945576" fill="#ff2203" stroke="none" /><path d="M 85.57189188830299 84.74124197986013 l -3.5411098143792907 -3.74497732911711 a26.154058004436354,26.154058004436354 0 0,0 0.3297803983974659,-0.30649493954425633 l 3.4761215321869687 3.805376854736016" fill="#ff4306" stroke="none" /><path d="M 86.93701828274178 83.55741782278169 l -3.7123759276408643 -4.672826433058332 a26.96800149980008,26.96800149980008 0 0,0 0.36595249904070504,-0.2856317301436271 l 3.6313908734407336 4.736036552425178" fill="#ff4e07" stroke="none" /><path d="M 87.22198572758235 83.33499621200491 l -3.405635997867772 -4.441608499961442 a26.59698513638392,26.59698513638392 0 0,0 0.3657134169791329,-0.27544776363442264 l 3.3286764271302496 4.499572853101718" fill="#ff4906" stroke="none" /><path d="M 87.51073957382395 83.11751280151077 l -3.42017845707315 -4.623261670248097 a26.750840734172048,26.750840734172048 0 0,0 0.3725432697229836,-0.27066852897592036 l 3.3400898709963847 4.681449434040685" fill="#ff4b07" stroke="none" /><path d="M 87.80319425747018 82.90503203632743 l -3.2728072812963758 -4.587146569855197 a26.63499610947877,26.63499610947877 0 0,0 0.3755139497774772,-0.2630715193347294 l 3.1933621919352384 4.642802931953869" fill="#ff4a06" stroke="none" /><path d="M 88.09926311788651 82.69761687909137 l -13.28580987794282 -19.31612931676669 a44.4440951178521,44.4440951178521 0 0,0 0.6340591551741774,-0.42811957195269146 l 12.951346028362103 19.541960801018046" fill="#d2ff1c" stroke="none" /><path d="M 88.39885842347998 82.49532879139004 l -4.396484034484508 -6.633744359547724 a28.95836893422945,28.95836893422945 0 0,0 0.4178733650750216,-0.27179646054865353 l 4.281643643625198 6.708439744255913" fill="#ff6a09" stroke="none" /><path d="M 88.70189139769569 82.29822771554957 l -1.4847035093850647 -2.326219755729599 a23.759645423370003,23.759645423370003 0 0,0 0.3466428716260513,-0.2170677344111561 l 1.444441485386771 2.3514318314636853" fill="#ff2203" stroke="none" /><path d="M 89.00827224532344 82.1063720568725 l -1.567297791404481 -2.551431784101941 a23.994365795267335,23.994365795267335 0 0,0 0.3537888498697403,-0.21315382347605977 l 1.5231468753170938 2.57803221703662" fill="#ff2503" stroke="none" /><line stroke="#e1ed5e" stroke-width="0.3" x1="56.76296977257108" x2="54.21961505331056" y1="26.818313649435495" y2="22.513508569990535" /><path d="M 56.25429882871898 25.957352633546506 a86.0,86.0 0 0,1 42.26535254187918,-11.944610805530505" fill="none" id="id36" stroke="none" /><text fill="#e1ed5e" style="font-size:6.75px; font-family:Arial;" text-anchor="middle"><textPath startOffset="22.20632615414155" xlink:href="#id36">December</textPath></text><path d="M 89.3179101791058 81.91981866633112 l -2.902778207015387 -4.9131543765531696 a26.70659331361251,26.70659331361251 0 0,0 0.3978052215817983,-0.2304344608905405 l 2.817776252968266 4.962392994833757" fill="#ff4b07" stroke="none" /><path d="M 89.63071344664047 81.73862282372117 l -2.8817556285469803 -5.075067237457245 a26.836165090825833,26.836165090825833 0 0,0 0.4036618139941705,-0.2246373624523844 l 2.793969725480764 5.123919997469813" fill="#ff4d07" stroke="none" /><path d="M 89.94658935756843 81.56283822128135 l -2.7782911638224137 -5.095166752622481 a26.80341503151405,26.80341503151405 0 0,0 0.4069715072740921,-0.2173900848699821 l 2.6901746100200166 5.142235563994212" fill="#ff4c07" stroke="none" /><path d="M 90.26544431104013 81.39251694778311 l -3.7592287559137496 -7.185719369236619 a29.10964633585899,29.10964633585899 0 0,0 0.44598682945537155,-0.2284517762694765 l 3.6349814388696142 7.2493636708186004" fill="#ff6c09" stroke="none" /><path d="M 90.58718382345135 81.22770947309562 l -9.695319191302366 -19.335695629927216 a42.6302644393087,42.6302644393087 0 0,0 0.6587974145475878,-0.3232690301927419 l 9.361050509744352 19.499719820254786" fill="#e8ff1a" stroke="none" /><path d="M 91.90106846888425 80.62456947434976 l -2.2394950423495477 -5.357642602468572 a26.806864239888377,26.806864239888377 0 0,0 0.42727094604024085,-0.17429454702435807 l 2.1469402267209263 5.395398035676507" fill="#ff4c07" stroke="none" /><path d="M 92.23578459929587 80.48803036053334 l -2.046645772978507 -5.1433516619693185 a26.53559619541864,26.53559619541864 0 0,0 0.4258544116488852,-0.1652248956745291 l 1.957808196329944 5.177819261534399" fill="#ff4806" stroke="none" /><path d="M 93.25333710446033 80.11325718540243 l -1.834586554399678 -5.407703266541637 a26.710425767361762,26.710425767361762 0 0,0 0.436673713864489,-0.14396445790751775 l 1.7412300182927798 5.438481448708389" fill="#ff4b07" stroke="none" /><path d="M 93.59665428221793 80.00007090966166 l -1.704961032664467 -5.325200490172856 a26.59148033918045,26.59148033918045 0 0,0 0.43713180830286497,-0.13581898068830844 l 1.6130438516508736 5.35375960574369" fill="#ff4906" stroke="none" /><path d="M 93.94186890950719 79.89281104454417 l -1.683862274079542 -5.5888088940522875 a26.836966422064314,26.836966422064314 0 0,0 0.44346142262306626,-0.12945854977656587 l 1.5874106337330542 5.616965772747553" fill="#ff4d07" stroke="none" /><path d="M 94.28887869178378 79.79150937346287 l -1.592214537366363 -5.633964123212433 a26.854630549799502,26.854630549799502 0 0,0 0.4459174455634377,-0.12188608250158191 l 1.494999202579203 5.660536746540311" fill="#ff4d07" stroke="none" /><path d="M 94.63758080256005 79.69619591428918 l -1.6013940435028147 -6.063381046156925 a27.271287953320382,27.271287953320382 0 0,0 0.45489951257904687,-0.11596401451655644 l 1.4967856422387684 6.0900480568423445" fill="#ff5307" stroke="none" /><path d="M 94.98787191387505 79.60689891045804 l -4.407942246159481 -17.934819357797235 a39.4685597771536,39.4685597771536 0 0,0 0.6611478304431392,-0.15647233063621102 l 4.098570728753808 18.008037600574315" fill="#fff116" stroke="none" /><path d="M 95.33964822691252 79.52364482259891 l -7.059430076110891 -31.017271791204053 a52.8104810144223,52.8104810144223 0 0,0 0.8881145529140753,-0.19410744254180107 l 6.524472799043294 31.134192731841722" fill="#76ff27" stroke="none" /><path d="M 95.692805502759 79.44645832069477 l -1.1690759468709564 -5.578724437839316 a26.699903939795636,26.699903939795636 0 0,0 0.4506353723935389,-0.09039321634466509 l 1.072874165010281 5.598021610261192" fill="#ff4b07" stroke="none" /><path d="M 96.40284397218896 79.31037775812273 l -1.0024462872539806 -5.765731272345793 a26.852226556084062,26.852226556084062 0 0,0 0.45606690298557134,-0.07525494672463508 l 0.9030501781295236 5.782132482010055" fill="#ff4d07" stroke="none" /><path d="M 96.75951476605007 79.25152402106235 l -0.8845130587632563 -5.663441314446586 a26.732096551289345,26.732096551289345 0 0,0 0.45524890213892427,-0.06709185419973751 l 0.7868951761956832 5.677827652807292" fill="#ff4b07" stroke="none" /><path d="M 99.63851952072746 79.00311137660856 l -0.028899990901098602 -1.6786795552240168 a22.678928306569755,22.678928306569755 0 0,0 0.3903804701736339,-0.0033601279542973686 l 4.112188353277074e-16 1.6789283065697553" fill="#ff1202" stroke="none" /></svg>