<?xml version="1.0" encoding="utf-8" ?>
<svg baseProfile="full" height="200mm" version="1.1" viewBox="0,0,200,200" width="200mm" xmlns="http://www.w3.org/2000/svg" xmlns:ev="http://www.w3.org/2001/xml-events" xmlns:xlink="http://www.w3.org/1999/xlink"><defs /><rect fill="#1a1a1a" height="200" width="200" x="0" y="0" /><text alignment-baseline="middle" fill="#e1ed5e" style="dominant-baseline: central; font-size:9.0px; font-family:Arial;" text-anchor="middle" x="100.0" y="100.0">2023</text><line stroke="#e1ed5e" stroke-width="0.3" x1="100.0" x2="100.0" y1="15.0" y2="10.0" /><path d="M 100.0 14.0 a86.0,86.0 0 0,1 42.46469731375804,11.215312516191453" fill="none" id="id49" stroke="none" /><text fill="#e1ed5e" style="font-size:6.75px; font-family:Arial;" text-anchor="middle"><textPath startOffset="22.20632615414155" xlink:href="#id49">January</textPath></text><path d="M 101.44485096284872 79.0497635885617 l 0.7101594500956218 -10.297261622047378 a31.321720949408093,31.321720949408093 0 0,0 0.5375550245819887,0.041724615779322356 l -0.8873046640399517 10.28351174407959" fill="#ff850c" stroke="none" /><path d="M 102.16513564639614 79.11191278185805 l 0.7765272030006308 -7.491525055501931 a28.531662642087284,28.531662642087284 0 0,0 0.48807253453644933,0.054840636116491974 l -0.9053664410468055 7.477048465914839" fill="#ff5f08" stroke="none" /><path d="M 103.59715602781102 79.31037775812273 l 6.651716632406905 -38.258419518226304 a59.83235761823428,59.83235761823428 0 0,0 1.0131751564266729,0.1851512837843537 l -7.309286909936478 38.138252753091216" fill="#31ff2f" stroke="none" /><path d="M 106.74666289553966 80.11325718540242 l 3.066813056956511 -9.039865110863161 a30.545915542729254,30.545915542729254 0 0,0 0.49647003224270714,0.17320864580485745 l -3.221965093262492 8.985735611886096" fill="#ff7a0b" stroke="none" /><path d="M 107.08798089147638 80.2323363322302 l 1.4537299538175221 -4.054306188294702 a25.30705577478061,25.30705577478061 0 0,0 0.4087905048316556,0.15056099285448424 l -1.5233027844217542 4.028681927633893" fill="#ff3204" stroke="none" /><path d="M 108.09893153111575 80.62456947434976 l 10.564126821889456 -25.27302577078079 a48.39209022910654,48.39209022910654 0 0,0 0.7657846465527947,0.32786902098402365 l -10.997595226232566 25.087437221833977" fill="#a8ff21" stroke="none" /><path d="M 108.76106565485865 80.91482961587045 l 22.52535857581809 -49.06940814268307 a74.9925790682608,74.9925790682608 0 0,0 1.1685336124748869,0.5486421993820572 l -23.366670399592575 48.67440096066102" fill="#42ffd6" stroke="none" /><path d="M 109.08828744355905 81.06846463323043 l 6.095315032264425 -12.696965497795363 a35.08423935449673,35.08423935449673 0 0,0 0.5421830355055985,0.26604686084752655 l -6.312969334780456 12.590163476813004" fill="#ffb610" stroke="none" /><path d="M 110.05341064243156 81.56283822128135 l 12.871001351117032 -23.604400795395705 a47.88550562459508,47.88550562459508 0 0,0 0.7202798909245287,0.40083497946901026 l -13.275405331113598 23.379350418366514" fill="#aeff20" stroke="none" /><path d="M 110.36928655335952 81.73862282372117 l 31.10785966007856 -54.7841315288365 a84.0,84.0 0 0,0 1.2512130701386914,0.7247833704398019 l -32.04626946268258 54.24054400100664" fill="#4dd2ff" stroke="none" /><line stroke="#e1ed5e" stroke-width="0.3" x1="143.23703022742887" x2="145.7803849466894" y1="26.81831364943548" y2="22.513508569990506" /><path d="M 143.74570117128098 25.957352633546492 a86.0,86.0 0 0,1 28.547481713284135,27.462654790039103" fill="none" id="id50" stroke="none" /><text fill="#e1ed5e" style="font-size:6.75px; font-family:Arial;" text-anchor="middle"><textPath startOffset="19.985693538727396" xlink:href="#id50">February</textPath></text><path d="M 110.68208982089419 81.91981866633111 l 2.823047343367294 -4.778204334303213 a26.54984981447671,26.54984981447671 0 0,0 0.39146860184698135,0.23585545244072392 l -2.904878011431913 4.728902272403875" fill="#ff4306" stroke="none" /><path d="M 112.19680574252982 82.90503203632743 l 0.47937316403523217 -0.6718864803471815 a21.825366629365686,21.825366629365686 0 0,0 0.30394908062160564,0.2208319334197253 l -0.4908675610106265 0.6635353121107813" fill="#ff0000" stroke="none" /><path d="M 112.48926042617603 83.11751280151076 l 1.7087840308638527 -2.3098665206451066 a23.87322574945521,23.87322574945521 0 0,0 0.32826122654045725,0.24723955026134964 l -1.7482914111626928 2.2801103808779097" fill="#ff1e03" stroke="none" /><path d="M 113.34407831869373 83.78471172551755 l 0.5847893307762385 -0.7106169007637119 a21.92030154897226,21.92030154897226 0 0,0 0.2892879219943356,0.2422703151949967 l -0.5969347897296915 0.7004454281748959" fill="#ff0100" stroke="none" /><path d="M 113.89432698308785 84.25364557470405 l 0.7083998991983153 -0.8028252034947856 a22.070681430001766,22.070681430001766 0 0,0 0.2827033714733189,0.2538138782134542 l -0.7221142582676242 0.7905123165120364" fill="#ff0400" stroke="none" /><path d="M 114.16331599549186 84.49514656593476 l 0.6760682577404359 -0.7401048773483413 a22.00240885800106,22.00240885800106 0 0,0 0.27743163824386236,0.25784247215546513 l -0.6887077797791451 0.7283578191182357" fill="#ff0300" stroke="none" /><path d="M 114.42810811169701 84.74124197986012 l 8.115105206926485 -8.582305157533515 a32.81147299605395,32.81147299605395 0 0,0 0.40704469129669657,0.3915766705263394 l -8.2616331418356 8.441345400244874" fill="#ff980e" stroke="none" /><path d="M 114.68862486808459 84.99185889309783 l 6.366310760600418 -6.504794770345318 a30.1017727781377,30.1017727781377 0 0,0 0.3671903112979422,0.36561347940852884 l -6.47733687206568 6.39424544028667" fill="#ff740a" stroke="none" /><path d="M 114.94478906791727 85.2469230424477 l 8.391604747610753 -8.283957041898615 a32.79164850697921,32.79164850697921 0 0,0 0.39308713244253596,0.40511084331647823 l -8.5329561437564 8.138282003032023" fill="#ff980e" stroke="none" /><path d="M 115.19652480421416 85.50635884689758 l 6.541066153874689 -6.238522742164932 a30.0390659049414,30.0390659049414 0 0,0 0.3536494623421153,0.37724858893089225 l -6.647482938187267 6.125004736355985" fill="#ff730a" stroke="none" /><path d="M 115.4437574822437 85.77008943001954 l 8.661370847741946 -7.980605284595401 a32.77749573001944,32.77749573001944 0 0,0 0.37874608493190254,0.41822088672109364 l -8.797460573289884 7.830331610604759" fill="#ff980e" stroke="none" /><path d="M 115.68641384162765 86.03803664274999 l 8.861207705339611 -7.887070845639227 a32.86283644502032,32.86283644502032 0 0,0 0.3724582123726313,0.42578412265413573 l -8.99565778129009 7.733371166782144" fill="#ff990e" stroke="none" /><path d="M 115.9244219780498 86.31012108654704 l 4.23995623484289 -3.644998074865606 a26.59135402556099,26.59135402556099 0 0,0 0.2954038412938095,0.34966497292393794 l -4.302070689623817 3.5714741523125615" fill="#ff4406" stroke="none" /><path d="M 116.15771136456269 86.58626213691792 l 7.578788157831755 -6.291725070169753 a30.85006773072619,30.85006773072619 0 0,0 0.3356803331436121,0.41150439714469994 l -7.685966983051776 6.160336503416952" fill="#ff7e0b" stroke="none" /><path d="M 116.38621287248628 86.86637796730983 l 4.491542663646963 -3.5999912943332255 a26.756204723481947,26.756204723481947 0 0,0 0.2849483811999639,0.3618555071627864 l -4.552845125440891 3.5221433932174007" fill="#ff4606" stroke="none" /><path d="M 116.60985879189232 87.15038557335679 l 9.052445013490127 -7.003095540975698 a32.44509099475823,32.44509099475823 0 0,0 0.3379296201034084,0.44467576839126666 l -9.171650573817647 6.846234996703398" fill="#ff940d" stroke="none" /><path d="M 116.82858285166822 87.43820079747576 l 14.06666937181317 -10.500151893627718 a38.55347193592084,38.55347193592084 0 0,0 0.3923961128625211,0.5352278569608576 l -14.245328097189317 10.256461592995368" fill="#ffe215" stroke="none" /><path d="M 117.04232023915458 87.72973835380427 l 34.50709581295445 -24.844685954352226 a63.520560692620286,63.520560692620286 0 0,0 0.6312352095014944,0.8928374381203555 l -34.929643642259826 24.24702201590008" fill="#34ff59" stroke="none" /><line stroke="#e1ed5e" stroke-width="0.3" x1="172.23445277983987" x2="176.4835382374775" y1="55.19839476539836" y2="52.563006222186495" /><path d="M 173.08426987136738 54.67131705675599 a86.0,86.0 0 0,1 12.851231095245387,41.99856678651699" fill="none" id="id51" stroke="none" /><text fill="#e1ed5e" style="font-size:6.75px; font-family:Arial;" text-anchor="middle"><textPath startOffset="22.20632615414155" xlink:href="#id51">March</textPath></text><line stroke="#e1ed5e" stroke-width="0.3" x1="184.98032266829074" x2="189.97916517819016" y1="98.17113171792111" y2="98.06355123074" /><path d="M 185.9800911702706 98.14961562048488 a86.0,86.0 0 0,1 -9.607161424134198,41.387399972396054" fill="none" id="id52" stroke="none" /><text fill="#e1ed5e" style="font-size:6.75px; font-family:Arial;" text-anchor="middle"><textPath startOffset="21.466115282336823" xlink:href="#id52">April</textPath></text><line stroke="#e1ed5e" stroke-width="0.3" x1="174.80103733775053" x2="179.2010983576182" y1="140.37084112569926" y2="142.7455964860345" /><path d="M 175.68104954172406 140.8457921977663 a86.0,86.0 0 0,1 -30.038265399797805,32.042727171017184" fill="none" id="id53" stroke="none" /><text fill="#e1ed5e" style="font-size:6.75px; font-family:Arial;" text-anchor="middle"><textPath startOffset="22.206326154141568" xlink:href="#id53">May</textPath></text><line stroke="#e1ed5e" stroke-width="0.3" x1="143.8653032363475" x2="146.44561519142675" y1="172.8068346515853" y2="177.08958963109032" /><path d="M 144.38136562736335 173.6633856474863 a86.0,86.0 0 0,1 -40.68145358897372,12.25698825130547" fill="none" id="id54" stroke="none" /><text fill="#e1ed5e" style="font-size:6.75px; font-family:Arial;" text-anchor="middle"><textPath startOffset="21.466115282336833" xlink:href="#id54">June</textPath></text><line stroke="#e1ed5e" stroke-width="0.3" x1="102.19456741930631" x2="102.32365962044197" y1="184.97166512339345" y2="189.96999836594603" /><path d="M 102.22038585953345 185.97133177190398 a86.0,86.0 0 0,1 -42.740103519485714,-10.115201625700543" fill="none" id="id55" stroke="none" /><text fill="#e1ed5e" style="font-size:6.75px; font-family:Arial;" text-anchor="middle"><textPath startOffset="22.20632615414155" xlink:href="#id55">July</textPath></text><line stroke="#e1ed5e" stroke-width="0.3" x1="58.666819895761336" x2="56.23545636021788" y1="174.27360380694188" y2="178.64263932499728" /><path d="M 58.180547188652646 175.14741091055294 a86.0,86.0 0 0,1 -31.652253787137756,-30.449443065178592" fill="none" id="id56" stroke="none" /><text fill="#e1ed5e" style="font-size:6.75px; font-family:Arial;" text-anchor="middle"><textPath startOffset="22.20632615414155" xlink:href="#id56">August</textPath></text><line stroke="#e1ed5e" stroke-width="0.3" x1="26.63291911575756" x2="22.317208475507996" y1="142.92168965132927" y2="145.44649492493687" /><path d="M 25.769776987707644 143.4266507060508 a86.0,86.0 0 0,1 -11.730757126820373,-40.83630448921669" fill="none" id="id57" stroke="none" /><text fill="#e1ed5e" style="font-size:6.75px; font-family:Arial;" text-anchor="middle"><textPath startOffset="21.46611528233685" xlink:href="#id57">September</textPath></text><line stroke="#e1ed5e" stroke-width="0.3" x1="15.007084014347285" x2="10.007500721073583" y1="101.09737516637583" y2="101.16192664675087" /><path d="M 14.007167355692545 101.11028546245083 a86.0,86.0 0 0,1 10.666146001902534,-42.60595125391555" fill="none" id="id58" stroke="none" /><text fill="#e1ed5e" style="font-size:6.75px; font-family:Arial;" text-anchor="middle"><textPath startOffset="22.20632615414155" xlink:href="#id58">October</textPath></text><line stroke="#e1ed5e" stroke-width="0.3" x1="26.266209847984243" x2="21.928928074336255" y1="57.711370442889674" y2="55.22380399835377" /><path d="M 25.398753493254645 57.213857153982495 a86.0,86.0 0 0,1 29.58750427330803,-30.492523968695096" fill="none" id="id59" stroke="none" /><text fill="#e1ed5e" style="font-size:6.75px; font-family:Arial;" text-anchor="middle"><textPath startOffset="21.46611528233685" xlink:href="#id59">November</textPath></text><line stroke="#e1ed5e" stroke-width="0.3" x1="56.76296977257108" x2="54.21961505331056" y1="26.818313649435495" y2="22.513508569990535" /><path d="M 56.25429882871898 25.957352633546506 a86.0,86.0 0 0,1 42.26535254187918,-11.944610805530505" fill="none" id="id60" stroke="none" /><text fill="#e1ed5e" style="font-size:6.75px; font-family:Arial;" text-anchor="middle"><textPath startOffset="22.20632615414155" xlink:href="#id60">December</textPath></text></svg>