<?xml version="1.0" encoding="utf-8" ?>
<svg baseProfile="full" height="200mm" version="1.1" viewBox="0,0,200,200" width="200mm" xmlns="http://www.w3.org/2000/svg" xmlns:ev="http://www.w3.org/2001/xml-events" xmlns:xlink="http://www.w3.org/1999/xlink"><defs /><rect fill="#1a1a1a" height="200" width="200" x="0" y="0" /><text alignment-baseline="middle" fill="#e1ed5e" style="dominant-baseline: central; font-size:9.0px; font-family:Arial;" text-anchor="middle" x="100.0" y="100.0">2022</text><line stroke="#e1ed5e" stroke-width="0.3" x1="100.0" x2="100.0" y1="15.0" y2="10.0" /><path d="M 100.0 14.0 a86.0,86.0 0 0,1 42.46469731375804,11.215312516191453" fill="none" id="id37" stroke="none" /><text fill="#e1ed5e" style="font-size:6.75px; font-family:Arial;" text-anchor="middle"><textPath startOffset="22.20632615414155" xlink:href="#id37">January</textPath></text><path d="M 100.0 79.0 l 0.0 -44.48440642963783 a65.48440642963783,65.48440642963783 0 0,0 1.1272064105267867,0.009702221447168435 l -0.7657259312542584 44.47781558479922" fill="#36ff70" stroke="none" /><path d="M 100.36148047927253 79.00311137660856 l 0.1377183523119541 -7.999482878606558 a29.000668263944142,29.000668263944142 0 0,0 0.4990509081970908,0.01288901261513642 l -0.2753958957039127 7.995927073849062" fill="#ff6809" stroke="none" /><path d="M 100.72285384407766 79.0124445844662 l 0.2612741477331044 -7.585912005755021 a28.59041007715208,28.59041007715208 0 0,0 0.49169946214818633,0.021173613157394616 l -0.39181444227062223 7.580290666073432" fill="#ff6309" stroke="none" /><path d="M 101.08401301168833 79.027996857942 l 0.2018890285453491 -3.905873172505281 a24.911087370481955,24.911087370481955 0 0,0 0.42804122514010134,0.02582061563033285 l -0.26909230252506233 3.901819287494644" fill="#ff3004" stroke="none" /><path d="M 101.80526077348638 79.07773832637324 l 0.33028878876236667 -3.8279170343938245 a24.842139964418855,24.842139964418855 0 0,0 0.42571723630960007,0.04042698125532116 l -0.3961311521622109 3.8216645086233254" fill="#ff2f04" stroke="none" /><path d="M 102.16513564639614 79.11191278185805 l 0.41403087403035355 -3.9943515881532328 a25.015752255111437,25.015752255111437 0 0,0 0.4279281498470336,0.04808271371396383 l -0.4827257273871124 3.986632920968668" fill="#ff3104" stroke="none" /><path d="M 102.88285421437855 79.19881850522331 l 2.1934995642530377 -15.827155711575452 a36.97843228407699,36.97843228407699 0 0,0 0.629744497138303,0.09280796897385508 l -2.4656130418199966 15.78705325844063" fill="#ffd013" stroke="none" /><path d="M 103.2404852339499 79.25152402106235 l 0.584945578741603 -3.7453431857525183 a24.79074622062097,24.79074622062097 0 0,0 0.421054054043741,0.06947752664756762 l -0.6493288389242192 3.7347193961653264" fill="#ff2e04" stroke="none" /><path d="M 103.59715602781102 79.31037775812273 l 0.6829907740030358 -3.928331437268565 a24.987262755124846,24.987262755124846 0 0,0 0.4231234545717222,0.07732310678592415 l -0.7505093496776588 3.9159928491319023" fill="#ff3104" stroke="none" /><path d="M 103.95276090670814 79.375362276772 l 0.7055333853302085 -3.6813181514175137 a24.748317047659064,24.748317047659064 0 0,0 0.4176968986117978,0.08378606837312108 l -0.7687966934091317 3.6686281269671843" fill="#ff2e04" stroke="none" /><path d="M 104.307194497241 79.44645832069477 l 4.147335767297449 -19.790710311740952 a41.22059862145417,41.22059862145417 0 0,0 0.693207348472076,0.15150827685639184 l -4.487385839923053 19.716388536788692" fill="#f9ff18" stroke="none" /><path d="M 104.66035177308747 79.52364482259891 l 2.3979936145235974 -10.536150778934637 a31.805593302162585,31.805593302162585 0 0,0 0.532783540276391,0.12609265043762113 l -2.579000841762512 10.493312216356149" fill="#ff8e0d" stroke="none" /><path d="M 105.01212808612495 79.60689891045804 l 6.93595237350734 -28.220663054630773 a50.06051029439374,50.06051029439374 0 0,0 0.8350357992389489,0.21286921807366227 l -7.420697061431314 28.097090840388244" fill="#94ff23" stroke="none" /><path d="M 106.0581310904928 79.89281104454417 l 7.247530206134297 -24.05485406940279 a46.122951625736434,46.122951625736434 0 0,0 0.7582055978552464,0.23557817000935802 l -7.660521176700262 23.92653576451091" fill="#c0ff1e" stroke="none" /><path d="M 106.40334571778207 80.00007090966166 l 12.629444064557566 -39.44625151818834 a62.418710943436714,62.418710943436714 0 0,0 1.0204483657317631,0.33642578229651704 l -13.306575252531745 39.22301201163258" fill="#32ff4d" stroke="none" /><path d="M 106.74666289553966 80.11325718540242 l 9.49748249563911 -27.99517253215446 a50.56233852150514,50.56233852150514 0 0,0 0.8218017168587844,0.28671048251232667 l -9.977966216561168 27.827541196469923" fill="#8fff24" stroke="none" /><path d="M 107.08798089147638 80.2323363322302 l 4.821236276030828 -13.445941605462908 a35.28417533100298,35.28417533100298 0 0,0 0.5699531377531173,0.20991855066686682 l -5.051971739556522 13.360959786989715" fill="#ffbb11" stroke="none" /><path d="M 109.73455568895987 81.39251694778311 l 8.718844262006055 -16.665963195853987 a39.808842987028086,39.808842987028086 0 0,0 0.6044403227805051,0.3228710873353494 l -9.004429631314872 16.513413382016886" fill="#fff316" stroke="none" /><line stroke="#e1ed5e" stroke-width="0.3" x1="143.23703022742887" x2="145.7803849466894" y1="26.81831364943548" y2="22.513508569990506" /><path d="M 143.74570117128098 25.957352633546492 a86.0,86.0 0 0,1 28.547481713284135,27.462654790039103" fill="none" id="id38" stroke="none" /><text fill="#e1ed5e" style="font-size:6.75px; font-family:Arial;" text-anchor="middle"><textPath startOffset="19.985693538727396" xlink:href="#id38">February</textPath></text><path d="M 111.2981086023043 82.29822771554956 l 8.029084000235773 -12.579894708740037 a35.92380450038889,35.92380450038889 0 0,0 0.5183855868046147,0.3371724054909257 l -8.244436612824668 12.439823379089583" fill="#ffc312" stroke="none" /><path d="M 114.42810811169701 84.74124197986012 l 5.558279121755628 -5.878278390394543 a29.090032362748865,29.090032362748865 0 0,0 0.36087813687395465,0.34716448174937437 l -5.658640502242004 5.781730821882867" fill="#ff6a09" stroke="none" /><path d="M 114.68862486808459 84.99185889309783 l 5.500207628990049 -5.619851616777444 a28.86352441063143,28.86352441063143 0 0,0 0.3520857921428772,0.3505738238589162 l -5.596129221300247 5.524341942268409" fill="#ff6709" stroke="none" /><path d="M 115.9244219780498 86.31012108654704 l 9.4426553434215 -8.11764524019106 a33.45230517535782,33.45230517535782 0 0,0 0.3716222738952838,0.43988355659290396 l -9.580988230803902 7.953902733969049" fill="#ffa30f" stroke="none" /><path d="M 116.15771136456269 86.58626213691792 l 6.776244297586738 -5.625472732690645 a29.807010289923745,29.807010289923745 0 0,0 0.32433079990197966,0.39759121137437486 l -6.872073589565126 5.50799735170817" fill="#ff730a" stroke="none" /><path d="M 116.82858285166822 87.43820079747576 l 6.556793922967752 -4.894359162541563 a29.18207175232663,29.18207175232663 0 0,0 0.29701427513248546,0.4051271374893542 l -6.640070810613864 4.780769581380715" fill="#ff6b09" stroke="none" /><path d="M 117.04232023915458 87.72973835380427 l 6.274639902457805 -4.517663807415738 a28.731778073790643,28.731778073790643 0 0,0 0.285521880695029,0.4038504517014778 l -6.3514744029567165 4.408986855382467" fill="#ff6509" stroke="none" /><path d="M 117.2510076193507 88.02491185347247 l 7.632958217658433 -5.298551220433683 a30.291754204028358,30.291754204028358 0 0,0 0.29365047847221265,0.4308958425921108 l -7.723033161799378 5.166377354571165" fill="#ff7a0b" stroke="none" /><path d="M 117.45458315368197 88.32363383020206 l 15.560407364444306 -10.409243952648946 a39.72107467570201,39.72107467570201 0 0,0 0.37527594585040003,0.5715710117329057 l -15.73727994565263 10.139854876938367" fill="#fff216" stroke="none" /><path d="M 117.65298651832404 88.62581576622439 l 6.835310490969643 -4.404131886615699 a29.1312881625647,29.1312881625647 0 0,0 0.2679695694673505,0.423863505866045 l -6.91010765668295 4.285820733035448" fill="#ff6a09" stroke="none" /><line stroke="#e1ed5e" stroke-width="0.3" x1="172.23445277983987" x2="176.4835382374775" y1="55.19839476539836" y2="52.563006222186495" /><path d="M 173.08426987136738 54.67131705675599 a86.0,86.0 0 0,1 12.851231095245387,41.99856678651699" fill="none" id="id39" stroke="none" /><text fill="#e1ed5e" style="font-size:6.75px; font-family:Arial;" text-anchor="middle"><textPath startOffset="22.20632615414155" xlink:href="#id39">March</textPath></text><path d="M 117.84615892207809 88.93136811851018 l 6.999851386567259 -4.341482027664645 a29.23689174571104,29.23689174571104 0 0,0 0.2615785745826194,0.42996639915864004 l -7.073545759436102 4.2203478552989235" fill="#ff6c09" stroke="none" /><path d="M 118.03404312379186 89.2402003453031 l 7.650163720155962 -4.564380177505163 a29.90834279481838,29.90834279481838 0 0,0 0.2599751728485361,0.44438184258858915 l -7.727598567474822 4.432018922562678" fill="#ff750a" stroke="none" /><path d="M 118.21658344932153 89.55222093294921 l 3.2098917348590374 -1.840973076441985 a24.700349553447705,24.700349553447705 0 0,0 0.20835610384757466,0.3706422597460058 l -3.2411054799990477 1.7854473067611851" fill="#ff2d04" stroke="none" /><path d="M 118.56541770881063 90.18545643968196 l 3.2967114315213033 -1.7427950428020353 a24.729026793137667,24.729026793137667 0 0,0 0.19570147524524853,0.3780329596453324 l -3.326222339926668 1.6857893608963583" fill="#ff2d04" stroke="none" /><path d="M 118.73160827565052 90.50648371742162 l 3.514824517890064 -1.781376339925422 a24.94046863405956,24.94046863405956 0 0,0 0.19078269325291708,0.38460626788013724 l -3.544967224096389 1.720610483546335" fill="#ff3004" stroke="none" /><path d="M 118.89224826269711 90.83032412892265 l 6.658488511085043 -3.231811301066698 a28.40135619585721,28.40135619585721 0 0,0 0.20968559818806337,0.44165134627865255 l -6.713132303114862 3.116717539147505" fill="#ff6008" stroke="none" /><path d="M 119.04729006885535 91.15688171328212 l 7.401925032479319 -3.4365045303038375 a29.160763295993995,29.160763295993995 0 0,0 0.20745478438103696,0.45709911820987675 l -7.459982133823703 3.308583403251898" fill="#ff6b09" stroke="none" /><path d="M 119.196687751892 91.48605970444005 l 7.221990709595123 -3.2030316120822104 a28.900415262343888,28.900415262343888 0 0,0 0.1977741982191998,0.4564901173486604 l -7.276055617657004 3.078242350146947" fill="#ff6709" stroke="none" /><path d="M 119.34039704204932 91.81776055985345 l 8.10568684419636 -3.4292300433059175 a29.801237294045073,29.801237294045073 0 0,0 0.19580592621602297,0.4741595815188501 l -8.16351445729858 3.2891958913337644" fill="#ff730a" stroke="none" /><path d="M 119.47837535516314 92.15188598940014 l 3.7453257028066957 -1.5090449068004825 a25.037905540109247,25.037905540109247 0 0,0 0.1576272671359595,0.40114420163310044 l -3.770746519824356 1.4443517002715978" fill="#ff3204" stroke="none" /><path d="M 119.61058180528143 92.48833698450437 l 20.360549767210877 -7.798931728804023 a42.80310351609644,42.80310351609644 0 0,0 0.2576245658249781,0.6903057535352504 l -20.49177892153748 7.447302838239439" fill="#e7ff1a" stroke="none" /><path d="M 119.7369772167798 92.82701384747503 l 9.588112263615207 -3.484596234792016 a31.201681611343055,31.201681611343055 0 0,0 0.1791079329428868,0.5063622453631794 l -9.646673277367904 3.319036363002222" fill="#ff860c" stroke="none" /><path d="M 119.85752413597 93.16781622104841 l 7.339412428121381 -2.5251997275740496 a28.761675621552516,28.761675621552516 0 0,0 0.15704245535360567,0.469536952766275 l -7.381792177246757 2.3984896718854607" fill="#ff6509" stroke="none" /><path d="M 119.97218684219823 93.5106431181261 l 7.264885865304464 -2.3605045085214615 a28.63875305077018,28.63875305077018 0 0,0 0.14830034980894347,0.47015263561942383 l -7.304441698881614 2.2351017064756187" fill="#ff6309" stroke="none" /><path d="M 120.08093135843002 93.85539295169968 l 3.7234915767917682 -1.1393591352244097 a24.893909187623482,24.893909187623482 0 0,0 0.12185462201545276,0.4108332082586126 l -3.7425520959189233 1.0750965402192671" fill="#ff3004" stroke="none" /><path d="M 120.18372546131832 94.20196356495316 l 3.708268074019085 -1.0652480110913733 a24.858238643982943,24.858238643982943 0 0,0 0.11460030291219142,0.41227826364826 l -3.7260551474976396 1.0012584440241614" fill="#ff2f04" stroke="none" /><path d="M 120.28053869075195 94.5502522615342 l 7.385525031362438 -1.9846242227975868 a28.647529881902788,28.647529881902788 0 0,0 0.12387146648247084,0.47732729070828117 l -7.4185928297152115 1.8572005065404553" fill="#ff6409" stroke="none" /><path d="M 120.37134235888165 94.90015583598534 l 22.670054851204927 -5.675313138135115 a44.36965053595216,44.36965053595216 0 0,0 0.17909957282565223,0.7424833554497493 l -22.7643872242914 5.284244551025959" fill="#d4ff1c" stroke="none" /><path d="M 120.45610955862082 95.25157060432595 l 7.726201459297255 -1.7934652735942989 a28.93162698802936,28.93162698802936 0 0,0 0.1084324493867259,0.48608140913400877 l -7.755928295686019 1.660205694910326" fill="#ff6709" stroke="none" /><path d="M 120.73433829027371 96.67025291283417 l 3.889090249905326 -0.6245526985262833 a24.938919781506744,24.938919781506744 0 0,0 0.06441854391127637,0.42443771742348363 l -3.8992646872559025 0.5575158687107168" fill="#ff3004" stroke="none" /><path d="M 120.91429891909075 98.10471618934814 l 7.680031515695151 -0.695975488028739 a28.711502185826546,28.711502185826546 0 0,0 0.040367710588296836,0.49258831683866816 l -7.6908737101029425 0.5636732539823021" fill="#ff6409" stroke="none" /><path d="M 120.94382443527127 98.46500227214037 l 3.7847250974222053 -0.27738699028304614 a24.79487649409514,24.79487649409514 0 0,0 0.02753342218860993,0.425929854676681 l -3.788939110615231 0.21219807135332988" fill="#ff2e04" stroke="none" /><line stroke="#e1ed5e" stroke-width="0.3" x1="184.98032266829074" x2="189.97916517819016" y1="98.17113171792111" y2="98.06355123074" /><path d="M 185.9800911702706 98.14961562048488 a86.0,86.0 0 0,1 -9.607161424134198,41.387399972396054" fill="none" id="id40" stroke="none" /><text fill="#e1ed5e" style="font-size:6.75px; font-family:Arial;" text-anchor="middle"><textPath startOffset="21.466115282336823" xlink:href="#id40">April</textPath></text><path d="M 120.99980553446 99.90962569577887 l 13.940060169670867 -0.05999213833515573 a34.94018925950097,34.94018925950097 0 0,0 -0.002588407006489684,0.6014546308132864 l -13.939027465374874 -0.17997197068181547" fill="#ffb710" stroke="none" /><path d="M 120.9904718944345 100.63252640178507 l 27.435091151794925 0.8267284116414467 a48.447544632879485,48.447544632879485 0 0,0 -0.032293442545545274,0.8333502594143113 l -27.416795576398176 -1.298855918069764" fill="#a6ff21" stroke="none" /><path d="M 120.9764740272857 100.99374915477107 l 7.781625450344944 0.36865031291562184 a28.790352861242482,28.790352861242482 0 0,0 -0.027712290026732016,0.4948215544907516 l -7.774126809430682 -0.5025435837417968" fill="#ff6609" stroke="none" /><path d="M 120.8583938346157 102.4346265915055 l 8.874751768543298 1.0358758598588012 a29.935001832697104,29.935001832697104 0 0,0 -0.06414428110305738,0.5112930325125117 l -8.855605978193392 -1.1884866466587078" fill="#ff750a" stroke="none" /><path d="M 120.76222939487914 103.15116336523771 l 8.114535281772982 1.2315742119754511 a29.207463547207595,29.207463547207595 0 0,0 -0.07972002714678852,0.49641668514176057 l -8.092133500264906 -1.3710701268104166" fill="#ff6b09" stroke="none" /><path d="M 120.70491114924044 103.5080841355445 l 3.5057320034601247 0.5939848153011883 a24.555696112000142,24.555696112000142 0 0,0 -0.07419744186400765,0.4161386575692411 l -3.494988119256928 -0.6542422236036478" fill="#ff2b04" stroke="none" /><path d="M 120.64145759157962 103.86396538481128 l 3.9426684264095644 0.7380454726050711 a25.011152632378842,25.011152632378842 0 0,0 -0.08285845547573766,0.42249347935927756 l -3.9293800379581625 -0.8058026790322936" fill="#ff3104" stroke="none" /><path d="M 120.5718875245553 104.21870165774334 l 3.7744798326285305 0.774037108069061 a24.85302886721439,24.85302886721439 0 0,0 -0.08954896761175915,0.41834296429577666 l -3.760596826292328 -0.8388938917810067" fill="#ff2f04" stroke="none" /><path d="M 120.23288151984713 105.62410040840565 l 7.647903320856417 2.125874959930105 a28.937869333166454,28.937869333166454 0 0,0 -0.13753392534656916,0.47877363688732816 l -7.610176758623749 -2.257206072322015" fill="#ff6809" stroke="none" /><path d="M 120.13307415673323 105.97154293290107 l 6.877034940866135 2.03975354586914 a28.173158586409436,28.173158586409436 0 0,0 -0.14190313868481363,0.4637476676826265 l -6.840905029675189 -2.1578281861038233" fill="#ff5d08" stroke="none" /><path d="M 120.02730092923936 106.31721596034902 l 7.775647882838836 2.452674330958344 a29.153300642784984,29.153300642784984 0 0,0 -0.15507855191676717,0.47728270620321556 l -7.732277079905822 -2.5861559371393543" fill="#ff6a09" stroke="none" /><path d="M 119.9155931802556 106.66101706037122 l 6.147586474035244 2.056136516398282 a27.482323412929006,27.482323412929006 0 0,0 -0.1539130104925702,0.44734325357462645 l -6.111282632599444 -2.161652473062209" fill="#ff5407" stroke="none" /><path d="M 119.79798401119884 107.00284435728193 l 7.478603193516633 2.6452942958456935 a28.9326595563979,28.9326595563979 0 0,0 -0.17011816761002,0.4680921344170381 l -7.431960764901386 -2.7736342272688628" fill="#ff6709" stroke="none" /><path d="M 119.67450827220406 107.3425965602758 l 3.5442239673152325 1.3227170077750816 a24.783001957856907,24.783001957856907 0 0,0 -0.15259923438077239,0.39838844781431176 l -3.5209304533409536 -1.3835290224225372" fill="#ff2e04" stroke="none" /><path d="M 119.26925614724726 108.34839909993367 l 0.5569388158456827 0.24129356490953277 a21.606962460999313,21.606962460999313 0 0,0 -0.1507949038350555,0.34000269945606065 l -0.5527028272793544 -0.25084460085828114" fill="#ff0100" stroke="none" /><path d="M 118.81262510543309 109.33194174019688 l 22.57743743711658 11.199464701248106 a46.20255325996585,46.20255325996585 0 0,0 -0.35954679585782723,0.7094199384408543 l -22.38131197147248 -11.586438851391655" fill="#bfff1e" stroke="none" /><path d="M 118.64920377521936 109.65438752849418 l 2.5992212097201772 1.3455742740215129 a23.92686197555808,23.92686197555808 0 0,0 -0.19249444365808177,0.3641269439759464 l -2.5756742578372025 -1.3901162330835934" fill="#ff2203" stroke="none" /><line stroke="#e1ed5e" stroke-width="0.3" x1="174.80103733775053" x2="179.2010983576182" y1="140.37084112569926" y2="142.7455964860345" /><path d="M 175.68104954172406 140.8457921977663 a86.0,86.0 0 0,1 -30.038265399797805,32.042727171017184" fill="none" id="id41" stroke="none" /><text fill="#e1ed5e" style="font-size:6.75px; font-family:Arial;" text-anchor="middle"><textPath startOffset="22.206326154141568" xlink:href="#id41">May</textPath></text><path d="M 118.48025628344425 109.97397251340804 l 43.903763776629766 23.695284655524958 a70.88994877388095,70.88994877388095 0 0,0 -0.5888037809018589,1.0688498919561904 l -43.4893835862764 -24.447505065878957" fill="#3dffab" stroke="none" /><path d="M 118.30583269289576 110.29060199501023 l 31.031313364204074 17.444215762847783 a56.59835772459479,56.59835772459479 0 0,0 -0.4847191265629424,0.8451486542592724 l -30.72644224148875 -17.97578426296537" fill="#50ff2b" stroke="none" /><path d="M 117.94076556474637 110.91462005526583 l 6.707878654355239 4.080870831564777 a28.851696809319044,28.851696809319044 0 0,0 -0.2617746879882995,0.42206414791236396 l -6.636639326698977 -4.195731310842415" fill="#ff6609" stroke="none" /><path d="M 117.75023020441432 111.22182372390056 l 6.669884212828809 4.2167489679417205 a28.891028277175323,28.891028277175323 0 0,0 -0.2693677537479545,0.41806473569009994 l -6.5963115957038045 -4.330935303553273" fill="#ff6709" stroke="none" /><path d="M 117.55443506779139 111.5257021239791 l 6.689492584122063 4.392115074476083 a29.002498726052014,29.002498726052014 0 0,0 -0.27759105615552254,0.41496096490341633 l -6.612898422555819 -4.5066129535853054" fill="#ff6809" stroke="none" /><path d="M 117.35343817320211 111.8261652097733 l 10.739453774201245 7.3188121759384845 a33.996187096024386,33.996187096024386 0 0,0 -0.333711579424798,0.48073641954711116 l -10.61188128761431 -7.502589857672615" fill="#ffab0f" stroke="none" /><path d="M 115.32070863581623 114.36230785411682 l 6.726376898635022 6.305602309750397 a30.21980296271132,30.21980296271132 0 0,0 -0.35903061227690636,0.37644216158686417 l -6.61683973497915 -6.420451587919769" fill="#ff790b" stroke="none" /><path d="M 115.07121518719521 114.62390073753431 l 5.854972473422025 5.681196586262404 a29.15822880999848,29.15822880999848 0 0,0 -0.35261931252737566,0.35720150190756955 l -5.756312535839114 -5.781138582150638" fill="#ff6b09" stroke="none" /><path d="M 114.81725581225074 114.88116024355365 l 4.337601058245354 4.356308431078649 a27.147536586892194,27.147536586892194 0 0,0 -0.33397939857635556,0.32686913485244773 l -4.2619717072932035 -4.430327668853669" fill="#ff4f07" stroke="none" /><path d="M 114.0293411484842 115.62618273729858 l 18.205552557304088 20.277737071399393 a48.25121583807898,48.25121583807898 0 0,0 -0.6228029064031465,0.5495511528485194 l -17.85380729799435 -20.5881113660202" fill="#a8ff21" stroke="none" /><path d="M 113.75828350139079 115.86535959552629 l 2.7286682133134623 3.1465627537566077 a25.16491144943991,25.16491144943991 0 0,0 -0.32970171041059315,0.2809789503377605 l -2.674101026325822 -3.193066094317315" fill="#ff3304" stroke="none" /><path d="M 113.20401910651253 116.32954008644616 l 2.5560011953951554 3.1610317771066527 a25.065127797098082,25.065127797098082 0 0,0 -0.3378331722405076,0.26839510393784594 l -2.5012105304372967 -3.2045607950496247" fill="#ff3204" stroke="none" /><path d="M 112.92097659922987 116.55440617244103 l 3.95846917573964 5.071606318069458 a27.433558024978318,27.433558024978318 0 0,0 -0.3747571272653833,0.28734778472339173 l -3.8705833199807635 -5.138993444620221" fill="#ff5307" stroke="none" /><path d="M 112.63410532772338 116.77436683061366 l 2.4402289269257325 3.2399045368971158 a25.05606935641042,25.05606935641042 0 0,0 -0.34674620653370086,0.25651455406259893 l -2.3840977499734675 -3.281429039699484" fill="#ff3204" stroke="none" /><path d="M 112.34349029814194 116.9893568818739 l 0.6645866626188779 0.9147250670148988 a22.130662363553466,22.130662363553466 0 0,0 -0.310116626199857,0.2212599786864868 l -0.6487427085701363 -0.9260293075456049" fill="#ff0801" stroke="none" /><path d="M 111.7513745106137 117.40417183066458 l 2.284887349306146 3.383993251608072 a25.083150808621724,25.083150808621724 0 0,0 -0.35991371304565967,0.23853118351174546 l -2.2262989375205224 -3.422822456211136" fill="#ff3204" stroke="none" /><path d="M 111.45004920935366 117.60387380957326 l 0.7671615884522293 1.1794722928904466 a22.407015206915972,22.407015206915972 0 0,0 -0.3251345378742124,0.20751624527955492 l -0.7467452485310864 -1.1925029669938105" fill="#ff0c01" stroke="none" /><path d="M 111.1453310114006 117.79835938074945 l 2.1786089611224515 3.479094986099097 a25.10492861421279,25.10492861421279 0 0,0 -0.36823048559009997,0.22619723967901534 l -2.118399275600043 -3.5160806926064905" fill="#ff3304" stroke="none" /><line stroke="#e1ed5e" stroke-width="0.3" x1="143.8653032363475" x2="146.44561519142675" y1="172.8068346515853" y2="177.08958963109032" /><path d="M 144.38136562736335 173.6633856474863 a86.0,86.0 0 0,1 -40.68145358897372,12.25698825130547" fill="none" id="id42" stroke="none" /><text fill="#e1ed5e" style="font-size:6.75px; font-family:Arial;" text-anchor="middle"><textPath startOffset="21.466115282336833" xlink:href="#id42">June</textPath></text><path d="M 110.8373102113329 117.98757091392108 l 1.2199567380991003 2.0248620654529046 a23.36397140992517,23.36397140992517 0 0,0 -0.3462675506258583,0.2045809723688123 l -1.18492131644486 -2.0455616101154663" fill="#ff1a02" stroke="none" /><path d="M 110.5260780823613 118.17145234162733 l 13.97765810384774 24.130007975834072 a48.88605764502893,48.88605764502893 0 0,0 -0.7317805952893449,0.415524120305665 l -13.560228741637196 -24.367035261934365" fill="#a1ff22" stroke="none" /><path d="M 109.57404056367764 118.69057910512821 l 0.40270935973701477 0.7861749795688084 a21.88331530436182,21.88331530436182 0 0,0 -0.3367384679785983,0.16884765842039326 l -0.389116984075656 -0.7929904788985038" fill="#ff0500" stroke="none" /><path d="M 109.2508944713604 118.85261126421891 l 3.3579431128441715 6.8432297384647205 a28.622701306131937,28.622701306131937 0 0,0 -0.44417979825150433,0.21323329592260945 l -3.2396506465924344 -6.9000173108868905" fill="#ff6309" stroke="none" /><path d="M 108.92500713936063 119.00905698771935 l 3.4740321200082405 7.399218119968356 a29.174186684785038,29.174186684785038 0 0,0 -0.4564120963527568,0.20951640783586048 l -3.3461520278880643 -7.457921598138291" fill="#ff6b09" stroke="none" /><path d="M 108.59647513512805 119.15986991738527 l 3.255773645141248 7.256485773622658 a28.953404793620425,28.953404793620425 0 0,0 -0.45647017740156226,0.20010311135088485 l -3.1303827930819317 -7.311453438267997" fill="#ff6809" stroke="none" /><path d="M 108.2653958097858 119.30500536409082 l 3.1878342287731125 7.445639422789131 a29.099372412991585,29.099372412991585 0 0,0 -0.4621652957354727,0.1931851311001429 l -3.0591974735401783 -7.4994095969092465" fill="#ff6a09" stroke="none" /><path d="M 107.93186726928326 119.44442032107085 l 0.30248766553675804 0.7415274500890254 a21.80085063965599,21.80085063965599 0 0,0 -0.3486879168676022,0.13875011822009498 l -0.2896786726272896 -0.7466244127151893" fill="#ff0300" stroke="none" /><path d="M 107.59598834532513 119.57807347666477 l 1.3454447919114618 3.4677800698641117 a24.719639807969102,24.719639807969102 0 0,0 -0.3980212548168626,0.15049758124679222 l -1.2855533163343245 -3.490425901217535" fill="#ff2d04" stroke="none" /><path d="M 106.57524785965236 119.94407469862006 l 2.9974141201307343 9.091771502853508 a30.573129084456045,30.573129084456045 0 0,0 -0.5012226551217894,0.16047566608023434 l -2.8404701199180047 -9.142020015593449" fill="#ff7e0b" stroke="none" /><path d="M 105.88484417918355 120.15858648285463 l 2.3033501186325385 7.890146476773732 a29.219478888223357,29.219478888223357 0 0,0 -0.4840259994970663,0.1367905822629003 l -2.1671929510308665 -7.928625852375151" fill="#ff6b09" stroke="none" /><path d="M 105.53697534728816 120.25689768951611 l 2.416663002136256 8.841306329508804 a30.16564005828871,30.16564005828871 0 0,0 -0.5020561666228687,0.13259759672258986 l -2.2641163927018897 -8.881595275534977" fill="#ff780b" stroke="none" /><path d="M 104.13013068566511 120.58985236759428 l 1.530941971330009 7.632172338382659 a28.784204385957068,28.784204385957068 0 0,0 -0.4866345117048546,0.09326466236813478 l -1.39933984505345 -7.657394199099262" fill="#ff6509" stroke="none" /><path d="M 103.7750983002368 120.6578951692458 l 1.432709490621981 7.8399978255919445 a28.96983201766541,28.96983201766541 0 0,0 -0.4913159747320702,0.0854215799305481 l -1.2975445444178608 -7.863497984043499" fill="#ff6809" stroke="none" /><path d="M 103.41894727170886 120.7198165907248 l 5.917121307738134 35.8594791022106 a57.344388370866376,57.344388370866376 0 0,0 -0.9753028071132516,0.15232224035580336 l -5.2989826370163655 -35.95601964991351" fill="#49ff2c" stroke="none" /><path d="M 103.06178313531738 120.77559828337769 l 1.1607838835762434 7.876449308516845 a28.961524535791234,28.961524535791234 0 0,0 -0.493823518662283,0.06843943995644246 l -1.02503177372713 -7.89526331396589" fill="#ff6809" stroke="none" /><path d="M 102.70371172650421 120.8252237178851 l 0.5361099454297156 4.129363882070516 a25.164019685848896,25.164019685848896 0 0,0 -0.4300322186212566,0.05207091288540117 l -0.46495030375707863 -4.137980323681268" fill="#ff3304" stroke="none" /><path d="M 102.34483914955558 120.86867818915974 l 0.8864499039619312 7.889256617068671 a28.938901901534994,28.938901901534994 0 0,0 -0.495499324467625,0.05136053095557444 l -0.7505179828887035 -7.9033465164800045" fill="#ff6809" stroke="none" /><path d="M 101.98527174616119 120.90594882070398 l 0.3783538514954606 3.9842637516879797 a25.002188061542864,25.002188061542864 0 0,0 -0.4287942904409167,0.03699817565151998 l -0.30971524331300215 -3.990186179618163" fill="#ff3104" stroke="none" /><path d="M 101.62511606390274 120.93702456842531 l 0.29953438666764387 3.859022104358465 a24.870629464405447,24.870629464405447 0 0,0 -0.42710834036825573,0.02945589179532474 l -0.23306328552045777 -3.8636063406700747" fill="#ff2f04" stroke="none" /><path d="M 101.26447882468166 120.96189622390904 l 0.24275400199290356 4.024254181555725 a25.03156932512047,25.03156932512047 0 0,0 -0.430318818700173,0.022242567650099403 l -0.17344711487925094 -4.027836555968027" fill="#ff3204" stroke="none" /><path d="M 100.90346689309514 120.98055641714683 l 0.024392483413173367 0.5664489516059209 a21.566973904181232,21.566973904181232 0 0,0 -0.37103374988307364,0.012779152553757247 l -0.014638381855447418 -0.566784902585772" fill="#ff0000" stroke="none" /><line stroke="#e1ed5e" stroke-width="0.3" x1="102.19456741930631" x2="102.32365962044197" y1="184.97166512339345" y2="189.96999836594603" /><path d="M 102.22038585953345 185.97133177190398 a86.0,86.0 0 0,1 -42.740103519485714,-10.115201625700543" fill="none" id="id43" stroke="none" /><text fill="#e1ed5e" style="font-size:6.75px; font-family:Arial;" text-anchor="middle"><textPath startOffset="22.20632615414155" xlink:href="#id43">July</textPath></text><path d="M 100.54218724476979 120.99299961872073 l 0.10555751697402045 4.087091562859596 a25.08845445524196,25.08845445524196 0 0,0 -0.4318085123055395,0.0074339751370719595 l -0.03518931477581298 -4.088303015275828" fill="#ff3204" stroke="none" /><path d="M 98.37488393609728 120.93702456842531 l -2.4098156690007424 31.046625522904872 a52.14000911878559,52.14000911878559 0 0,0 -0.894215264625641,-0.07715665569350334 l 2.9438752513679254 -31.000544614932707" fill="#7eff26" stroke="none" /><path d="M 98.01472825383883 120.90594882070398 l -3.94265647379731 41.51823276496276 a62.7050139910779,62.7050139910779 0 0,0 -1.0736513838372295,-0.11128835583037297 l 4.656740454240133 -41.444215040676625" fill="#33ff50" stroke="none" /><path d="M 97.2962882734958 120.8252237178851 l -0.9342630828007198 7.196121361592878 a28.256515014706277,28.256515014706277 0 0,0 -0.48180238759363514,-0.0667734207271206 l 1.057994061581186 -7.178973375373152" fill="#ff5e08" stroke="none" /><path d="M 96.93821686468263 120.77559828337769 l -4.036962309355501 27.392634787510254 a48.688508542156505,48.688508542156505 0 0,0 -0.8280851955070793,-0.12932987710601856 l 4.507883368471098 -27.31908660305713" fill="#a3ff21" stroke="none" /><path d="M 95.86986931433489 120.58985236759428 l -5.441868196405943 27.129229386566305 a48.669640701967694,48.669640701967694 0 0,0 -0.8199873547390488,-0.17183632277328612 l 5.908047012574379 -27.03153708306648" fill="#a4ff21" stroke="none" /><path d="M 95.16358092515715 120.4354850818985 l -0.2457944816659923 1.0385637360140405 a22.06725327873982,22.06725327873982 0 0,0 -0.3688874656305348,-0.0906635640645366 l 0.26363523203973765 -1.034178913635474" fill="#ff0701" stroke="none" /><path d="M 94.46302465271185 120.25689768951611 l -2.238572645201005 8.189766831198847 a29.490199540484724,29.490199540484724 0 0,0 -0.48851053650048915,-0.13805795721489694 l 2.3792143498061082 -8.150020080645428" fill="#ff6f0a" stroke="none" /><path d="M 94.11515582081647 120.15858648285463 l -2.290013376189744 7.84446134599601 a29.17188687341874,29.17188687341874 0 0,0 -0.4808152423661104,-0.14486568833733343 l 2.4247035929961003 -7.803880288552952" fill="#ff6b09" stroke="none" /><path d="M 93.76903079525671 120.05430185196036 l -2.4729021510157523 7.959006786469121 a29.334328651760732,29.334328651760732 0 0,0 -0.48091348623278446,-0.15397331154439015 l 2.609536982339477 -7.915260628265024" fill="#ff6d0a" stroke="none" /><path d="M 93.42475214034765 119.94407469862007 l -11.379154853817528 34.51530942343839 a57.34269871353604,57.34269871353604 0 0,0 -0.9347686364145233,-0.31712427389480563 l 11.971593223169277 -34.31432216264546" fill="#49ff2c" stroke="none" /><path d="M 93.08242187328487 119.8279376855182 l -3.0740479839362806 8.81118084266943 a30.3320243704015,30.3320243704015 0 0,0 -0.49149497998809816,-0.17623261326993395 l 3.225262524554106 -8.75696068835954" fill="#ff7a0b" stroke="none" /><path d="M 92.7421414339146 119.70592522655815 l -2.7458747924418496 7.455367564503914 a28.94495650696872,28.94495650696872 0 0,0 -0.466054845419264,-0.17622206380968305 l 2.8737998586213966 -7.406997250587597" fill="#ff6809" stroke="none" /><path d="M 92.40401165467489 119.57807347666478 l -5.311850875285072 13.690885505033794 a35.68523427232985,35.68523427232985 0 0,0 -0.5707580042183027,-0.22711638898122224 l 5.546729955545232 -13.597422271646506" fill="#ffc011" stroke="none" /><path d="M 91.7346041902142 119.30500536409082 l -10.9097505407986 25.481271261281307 a48.718546894695905,48.718546894695905 0 0,0 -0.7680811255976674,-0.3367041936384223 l 11.34675234105401 -25.28970251434843" fill="#a3ff21" stroke="none" /><line stroke="#e1ed5e" stroke-width="0.3" x1="58.666819895761336" x2="56.23545636021788" y1="174.27360380694188" y2="178.64263932499728" /><path d="M 58.180547188652646 175.14741091055294 a86.0,86.0 0 0,1 -31.652253787137756,-30.449443065178592" fill="none" id="id44" stroke="none" /><text fill="#e1ed5e" style="font-size:6.75px; font-family:Arial;" text-anchor="middle"><textPath startOffset="22.20632615414155" xlink:href="#id44">August</textPath></text><path d="M 89.7882731507175 118.34994917583269 l -7.170150993450204 12.884393428727696 a35.745123237705286,35.745123237705286 0 0,0 -0.5350725507774317,-0.30382815886719466 l 7.3908723111488435 -12.759062104065869" fill="#ffc111" stroke="none" /><path d="M 88.8546689885994 117.79835938074946 l -14.466102996595614 23.101413471612055 a48.25698883395764,48.25698883395764 0 0,0 -0.7002277464821576,-0.4469184779340741 l 14.861612545124695 -22.848980564854177" fill="#a8ff21" stroke="none" /><path d="M 88.54995079064634 117.60387380957326 l -6.339818453531875 9.747151474284264 a32.62756465844784,32.62756465844784 0 0,0 -0.4681671785756272,-0.31027567758395214 l 6.506660330847464 -9.636577775608993" fill="#ff990e" stroke="none" /><path d="M 87.07902340077011 116.55440617244103 l -15.67700957598615 20.08544649059967 a46.4792815827351,46.4792815827351 0 0,0 -0.6264577331368221,-0.49769591092205034 l 16.020424801840328 -19.812616665672486" fill="#bcff1f" stroke="none" /><path d="M 86.79598089348748 116.32954008644616 l -22.55293610063814 27.89143753516576 a56.868749832375265,56.868749832375265 0 0,0 -0.7558936585969123,-0.6220490200469755 l 23.02969988777974 -27.499093396261603" fill="#4eff2c" stroke="none" /><path d="M 86.51685102203217 116.09983520530335 l -21.523623335528036 25.700731282378143 a54.52303610860295,54.52303610860295 0 0,0 -0.714341407395829,-0.6087772446886053 l 21.96283021950092 -25.326429647466586" fill="#65ff29" stroke="none" /><path d="M 86.24171649860922 115.8653595955263 l -2.651732426280732 3.057844279034405 a25.047480264981182,25.047480264981182 0 0,0 -0.3233005269640228,-0.28527512553803797 l 2.7039753061513427 -3.011746011724078" fill="#ff3204" stroke="none" /><path d="M 85.18274418774928 114.88116024355367 l -5.6176536899781135 5.641881723081117 a28.961712275494605,28.961712275494605 0 0,0 -0.3502427784193381,-0.35479408540323154 l 5.713937093452985 -5.544347143697221" fill="#ff6809" stroke="none" /><path d="M 84.9287848128048 114.62390073753433 l -25.117602859013964 24.372111101373484 a55.998482437397755,55.998482437397755 0 0,0 -0.6652978333738689,-0.6975621184668145 l 25.533407243766792 -23.936141866324167" fill="#56ff2a" stroke="none" /><path d="M 83.95833913139862 113.55231037782056 l -2.018240194210709 1.7050489817094034 a23.642060845543863,23.642060845543863 0 0,0 -0.25995459142840377,-0.3131320515628352 l 2.047290785532649 -1.670055673032807" fill="#ff1e03" stroke="none" /><path d="M 83.72743513129214 113.27417163493432 l -18.504101641583436 15.0945240115766 a44.879833179863574,44.879833179863574 0 0,0 -0.4831679234253851,-0.6028262749376392 l 18.76118747706368 -14.773769903060701" fill="#ceff1d" stroke="none" /><path d="M 83.28015986056508 112.70617746262583 l -22.033606439593534 16.744353488333815 a48.674052584996915,48.674052584996915 0 0,0 -0.5012007369426931,-0.6714402921885901 l 22.31856844323131 -16.362600316635916" fill="#a4ff21" stroke="none" /><path d="M 82.44556493220864 111.52570212397912 l -6.798249510393811 4.463521527106837 a29.132602340488305,29.132602340488305 0 0,0 -0.27162008835419554,-0.42156040901677416 l 6.874074462125052 -4.345839518168615" fill="#ff6a09" stroke="none" /><path d="M 82.24976979558568 111.22182372390057 l -6.875621658496248 4.346817666888033 a29.134432802596173,29.134432802596173 0 0,0 -0.26433998343392323,-0.42620022097855864 l 6.949426281598128 -4.22782111454421" fill="#ff6a09" stroke="none" /><path d="M 82.05923443525364 110.91462005526583 l -3.43174861845664 2.0877722391757465 a25.016925628257507,25.016925628257507 0 0,0 -0.22064824083753884,-0.3698191433068164 l 3.4671777349924104 -2.028391001982819" fill="#ff3104" stroke="none" /><line stroke="#e1ed5e" stroke-width="0.3" x1="26.63291911575756" x2="22.317208475507996" y1="142.92168965132927" y2="145.44649492493687" /><path d="M 25.769776987707644 143.4266507060508 a86.0,86.0 0 0,1 -11.730757126820373,-40.83630448921669" fill="none" id="id45" stroke="none" /><text fill="#e1ed5e" style="font-size:6.75px; font-family:Arial;" text-anchor="middle"><textPath startOffset="21.46611528233685" xlink:href="#id45">September</textPath></text><path d="M 81.87401531095188 110.60418214915194 l -3.4774676589824565 2.034410880635663 a25.028847099421583,25.028847099421583 0 0,0 -0.21435181854468263,-0.37374046340121364 l 3.5119714736795165 -1.9742505713761422" fill="#ff3104" stroke="none" /><path d="M 81.69416730710424 110.29060199501025 l -7.321915759749762 4.116006203521077 a29.3995212637564,29.3995212637564 0 0,0 -0.24418905043956568,-0.4432740560521611 l 7.391681219640844 -3.9893616290710936" fill="#ff6e0a" stroke="none" /><path d="M 81.51974371655577 109.97397251340807 l -23.016185516857988 12.422057258713401 a47.15439355605818,47.15439355605818 0 0,0 -0.3793626913082202,-0.7176112453921772 l 23.226600716391093 -12.0240309982351" fill="#b5ff20" stroke="none" /><path d="M 81.35079622478065 109.6543875284942 l -7.195624643381209 3.7250570938097836 a29.102657857800583,29.102657857800583 0 0,0 -0.2264759552322347,-0.44685854545264564 l 7.25867926839971 -3.6006443366544527" fill="#ff6a09" stroke="none" /><path d="M 81.18737489456691 109.33194174019688 l -7.127116862929111 3.5353832316161546 a28.95579847483841,28.95579847483841 0 0,0 -0.21764659482732052,-0.44841645013623876 l 7.186916714371151 -3.412177825514631" fill="#ff6809" stroke="none" /><path d="M 81.02952815118164 109.00673069616217 l -7.798648585945461 3.70261362855831 a29.632975584898574,29.632975584898574 0 0,0 -0.2148043363136784,-0.4626694305287954 l 7.861227539098966 -3.567824130750688" fill="#ff710a" stroke="none" /><path d="M 80.87730276802145 108.67885076344099 l -9.273927759706124 4.2089792062819 a31.184362623707056,31.184362623707056 0 0,0 -0.21763554092747261,-0.4907106906866189 l 9.345004385364877 -4.0487201791025855" fill="#ff860c" stroke="none" /><path d="M 80.73074385275274 108.34839909993369 l -7.699295835263496 3.3357174729559724 a29.39083830247548,29.39083830247548 0 0,0 -0.19712717794472592,-0.4659504182343275 l 7.755573994400528 -3.202692529055486" fill="#ff6e0a" stroke="none" /><path d="M 80.58989483394504 108.01547362559985 l -7.712366003963209 3.184849632028262 a29.34409111633604,29.34409111633604 0 0,0 -0.18877666651476238,-0.4685282048278949 l 7.766045284735359 -3.051622059357562" fill="#ff6d0a" stroke="none" /><path d="M 80.45479744820244 107.68017299344265 l -33.3914610837584 13.12097927598539 a56.87686957454608,56.87686957454608 0 0,0 -0.3502145045144145,-0.9142995600319501 l 33.61236986786633 -12.544256149120281" fill="#4dff2c" stroke="none" /><path d="M 80.32549172779594 107.34259656027581 l -50.111451165520414 18.701772052835132 a74.48751083973288,74.48751083973288 0 0,0 -0.43797144984844644,-1.2051093287299988 l 50.425946876374084 -17.836414927099018" fill="#41ffd1" stroke="none" /><path d="M 80.20201598880116 107.00284435728193 l -6.561731592508087 2.3209830369901057 a27.960120958008886,27.960120958008886 0 0,0 -0.15658888536182133,-0.45512059849392744 l 6.600711308813137 -2.2076897354068814" fill="#ff5a08" stroke="none" /><path d="M 80.0844068197444 106.66101706037122 l -7.592600681916331 2.5394394340697106 a29.006018845490225,29.006018845490225 0 0,0 -0.15429509867666494,-0.47487148506400495 l 7.635188031609246 -2.408369049027902" fill="#ff6809" stroke="none" /><path d="M 79.97269907076064 106.31721596034903 l -8.14407523639867 2.568887452554745 a29.539622017397214,29.539622017397214 0 0,0 -0.14878576951090838,-0.486240503448661 l 8.187087778415709 -2.4283199765540364" fill="#ff700a" stroke="none" /><path d="M 79.86692584326677 105.97154293290107 l -8.93845352277934 2.6511777858408534 a30.323341409120573,30.323341409120573 0 0,0 -0.14411870223079684,-0.5016961090628987 l 8.982764861896241 -2.4969242012733583" fill="#ff7a0b" stroke="none" /><path d="M 79.76711848015287 105.62410040840567 l -8.358858744421854 2.3234980559834506 a29.675780237267226,29.675780237267226 0 0,0 -0.13256866810080226,-0.49333733075810215 l 8.397615488864428 -2.1792697920498094" fill="#ff720a" stroke="none" /><path d="M 79.67330655649465 105.27499134158121 l -16.795094687464655 4.358504215338556 a38.35141966975692,38.35141966975692 0 0,0 -0.16032479655840529,-0.6404178665605249 l 16.86763079831812 -4.068758509380639" fill="#ffe215" stroke="none" /><path d="M 79.58551787078972 104.9243191809786 l -7.770751260252358 1.8744369433070995 a28.99362802506772,28.99362802506772 0 0,0 -0.11285346411376339,-0.4861697697525287 l 7.801865290296677 -1.7403985162059965" fill="#ff6809" stroke="none" /><path d="M 79.50377843672027 104.57218783832718 l -10.191719923793695 2.2735145472222245 a31.442223106287493,31.442223106287493 0 0,0 -0.11329076361799255,-0.5292567311860195 l 10.229344726136127 -2.097743996620041" fill="#ff890c" stroke="none" /><path d="M 79.35854240842038 103.8639653848113 l -9.952813456801536 1.8631109992083739 a31.125693966403535,31.125693966403535 0 0,0 -0.09404933413475966,-0.5274786120504459 l 9.983409233275484 -1.6915136364247143" fill="#ff850c" stroke="none" /><path d="M 79.29508885075956 103.50808413554451 l -8.69736950007027 1.4736167542203868 a29.8213254423058,29.8213254423058 0 0,0 -0.08139552652257016,-0.50685002135415 l 8.72144678095413 -1.3236875031730233" fill="#ff730a" stroke="none" /><path d="M 79.23777060512086 103.15116336523772 l -10.017682411975336 1.5204221676208245 a31.13240566079906,31.13240566079906 0 0,0 -0.07585328951290422,-0.5305177301838072 l 10.04236975250484 -1.3477589654566167" fill="#ff850c" stroke="none" /><path d="M 79.18660465613746 102.79330883721812 l -15.638701512795617 2.0988273377120996 a36.778911914319174,36.778911914319174 0 0,0 -0.0788093108422609,-0.6281877485854088 l 15.672512332884725 -1.8293218348392821" fill="#ffce13" stroke="none" /><path d="M 79.1416061653843 102.43462659150553 l -8.086434006258969 0.9438620930351912 a29.141332236695064,29.141332236695064 0 0,0 -0.05386664041055744,-0.49873819004979886 l 8.10148294817058 -0.8045275811006102" fill="#ff6a09" stroke="none" /><path d="M 79.04373962182676 101.35467743843564 l -8.258235777284273 0.533837883615007 a29.275472254753836,29.275472254753836 0 0,0 -0.028179243988542726,-0.5031593311608485 l 8.266201372160348 -0.3916068361187209" fill="#ff6c0a" stroke="none" /><path d="M 79.0235259727143 100.99374915477108 l -0.6969529463726668 0.03301777031126096 a21.69773460757932,21.69773460757932 0 0,0 -0.014462952688895081,-0.37322454421473705 l 0.6974180319127627 -0.021015979082527118" fill="#ff0200" stroke="none" /><path d="M 79.0095281055655 100.63252640178507 l -13.813577777654853 0.41625803800032657 a34.819848109639985,34.819848109639985 0 0,0 -0.012896504567349592,-0.5992498914030819 l 13.81869634490721 -0.17841833080711575" fill="#ffb510" stroke="none" /><line stroke="#e1ed5e" stroke-width="0.3" x1="15.007084014347285" x2="10.007500721073583" y1="101.09737516637583" y2="101.16192664675087" /><path d="M 14.007167355692545 101.11028546245083 a86.0,86.0 0 0,1 10.666146001902534,-42.60595125391555" fill="none" id="id46" stroke="none" /><text fill="#e1ed5e" style="font-size:6.75px; font-family:Arial;" text-anchor="middle"><textPath startOffset="22.20632615414155" xlink:href="#id46">October</textPath></text><path d="M 79.00175016825051 100.2711162175752 l -36.51223520343261 0.4714230558683718 a57.515278435860075,57.515278435860075 0 0,0 -0.004260794026555067,-0.9900584768114264 l 36.51494029474867 0.15714489914673002" fill="#47ff2c" stroke="none" /><path d="M 79.00019446554 99.90962569577889 l -15.080380568182452 -0.06489959628448709 a36.08052021777806,36.08052021777806 0 0,0 0.008018453859309063,-0.6210380880496597 l 15.077029107205428 0.32447394239461863" fill="#ffc512" stroke="none" /><path d="M 79.01574976396665 99.18683210126434 l -33.23140996985996 -1.2877617981705014 a54.25635185996406,54.25635185996406 0 0,0 0.04419668622560386,-0.9329221929422412 l 33.20431967540085 1.8595950977357518" fill="#68ff28" stroke="none" /><path d="M 79.05617556472873 98.46500227214037 l -6.995660892593426 -0.5127202822099247 a28.014424667209028,28.014424667209028 0 0,0 0.03938763565710287,-0.48062892023935844 l 6.985798773116826 0.6330631196570615" fill="#ff5b08" stroke="none" /><path d="M 79.21141760316559 97.0276538004421 l -9.83544135203047 -1.406268891530289 a30.935466711962594,30.935466711962594 0 0,0 0.07990794061088657,-0.5264934886390629 l 9.809777517980281 1.575361492561444" fill="#ff820c" stroke="none" /><path d="M 79.26566170972629 96.67025291283419 l -12.050373225747194 -1.9351808862168858 a33.204770376462804,33.204770376462804 0 0,0 0.09548448912776343,-0.5635548598990923 l 12.015276875099207 2.142321534431806" fill="#ffa00e" stroke="none" /><path d="M 79.32604984820605 96.31383870115002 l -8.547085290210688 -1.5239436480894655 a29.681881777626792,29.681881777626792 0 0,0 0.09401280378247218,-0.5022201570359516 l 8.519586762518355 1.6708418825879898" fill="#ff720a" stroke="none" /><path d="M 79.3925641242962 95.95851677861259 l -10.827530413187327 -2.12347051607477 a32.03379091161036,32.03379091161036 0 0,0 0.110776973833952,-0.5401878660558467 l 10.789374143438382 2.3095340382940193" fill="#ff910d" stroke="none" /><path d="M 79.46518482838121 95.60439243477599 l -8.008719274268664 -1.7143172088729124 a29.190144559571596,29.190144559571596 0 0,0 0.10940134386001048,-0.49042477307663573 l 7.978023543406616 1.8519201514995072" fill="#ff6b09" stroke="none" /><path d="M 79.54389044137918 95.25157060432595 l -13.269167627658712 -3.0801411890536015 a34.62197046228667,34.62197046228667 0 0,0 0.13975273740670596,-0.5793653204523656 l 13.214182089991192 3.308091741165364" fill="#ffb310" stroke="none" /><path d="M 79.62865764111835 94.90015583598534 l -3.161139445848613 -0.7913724226189183 a24.258691901266797,24.258691901266797 0 0,0 0.10489420041252824,-0.4042001432267658 l 3.1470489135657775 0.8456689913945479" fill="#ff2703" stroke="none" /><path d="M 79.81627453868168 94.20196356495316 l -10.027489968486693 -2.8805263082267047 a31.4330238608223,31.4330238608223 0 0,0 0.15386330899235895,-0.518750588374088 l 9.976420762382627 3.052706283347332" fill="#ff890c" stroke="none" /><path d="M 79.91906864156998 93.8553929516997 l -7.734624269195837 -2.366734189373329 a29.088624314973583,29.088624314973583 0 0,0 0.15062992280858403,-0.4775380186415093 l 7.692738862619049 2.499522374441253" fill="#ff6a09" stroke="none" /><path d="M 80.02781315780177 93.51064311812611 l -9.635776225175807 -3.130853484052382 a31.131654701985568,31.131654701985568 0 0,0 0.16998284654725676,-0.50822707535121 l 9.580456084856777 3.296253662325914" fill="#ff850c" stroke="none" /><path d="M 80.14247586403 93.16781622104843 l -8.597539085832747 -2.958071040423755 a30.092186899344703,30.092186899344703 0 0,0 0.17273906773387684,-0.4883566057767007 l 8.545346937289061 3.1056252726270666" fill="#ff770b" stroke="none" /><path d="M 80.2630227832202 92.82701384747504 l -35.009988954355705 -12.72363864088291 a58.25037324441028,58.25037324441028 0 0,0 0.3505990426743343,-0.9394311274898502 l 34.785785323179745 13.324392905402103" fill="#40ff2d" stroke="none" /><path d="M 80.38941819471856 92.48833698450439 l -7.419778292978261 -2.8420816240919344 a28.945472791152987,28.945472791152987 0 0,0 0.18222753355783022,-0.46374919639742984 l 7.369757209538739 2.969379825385128" fill="#ff6809" stroke="none" /><path d="M 80.52162464483688 92.15188598940014 l -10.182103612354151 -4.102514124532167 a31.97751593552482,31.97751593552482 0 0,0 0.21010493839777653,-0.5087857737044436 l 10.109976987070173 4.277174468689922" fill="#ff900d" stroke="none" /><path d="M 80.65960295795067 91.81776055985345 l -9.774675084070857 -4.135320066781197 a31.613441715762086,31.613441715762086 0 0,0 0.21634025087628705,-0.49934312665142716 l 9.702044123351891 4.302962338019223" fill="#ff8b0c" stroke="none" /><path d="M 80.803312248108 91.48605970444005 l -7.446252684436079 -3.3024942427733857 a29.14574411972429,29.14574411972429 0 0,0 0.20734793532694415,-0.45686369048256503 l 7.388302432145783 3.4301799420980217" fill="#ff6a09" stroke="none" /><path d="M 81.10775173730289 90.83032412892265 l -0.7040870034518962 -0.3417406714604696 a21.782639888428978,21.782639888428978 0 0,0 0.16662680902465263,-0.3359094792879893 l 0.6981001814738308 0.3538097392474204" fill="#ff0300" stroke="none" /><path d="M 81.26839172434947 90.50648371742162 l -5.356134393847004 -2.714585332523921 a27.004760542478344,27.004760542478344 0 0,0 0.21371126009189823,-0.4128221315696823 l 5.308613700594991 2.806380186353939" fill="#ff4d07" stroke="none" /><path d="M 81.43458229118936 90.18545643968196 l -10.288390280262536 -5.438921771378678 a32.63756179765236,32.63756179765236 0 0,0 0.26683833437683446,-0.49441090788070585 l 10.193243846667231 5.615213662591857" fill="#ff990e" stroke="none" /><path d="M 81.6062741919709 89.86733742301443 l -6.938900974930998 -3.822474194075512 a28.92209919808327,28.92209919808327 0 0,0 0.24396804146298906,-0.43399192307704676 l 6.8720752921755786 3.941349627087343" fill="#ff6709" stroke="none" /><line stroke="#e1ed5e" stroke-width="0.3" x1="26.266209847984243" x2="21.928928074336255" y1="57.711370442889674" y2="55.22380399835377" /><path d="M 25.398753493254645 57.213857153982495 a86.0,86.0 0 0,1 29.58750427330803,-30.492523968695096" fill="none" id="id47" stroke="none" /><text fill="#e1ed5e" style="font-size:6.75px; font-family:Arial;" text-anchor="middle"><textPath startOffset="21.46611528233685" xlink:href="#id47">November</textPath></text><path d="M 81.78341655067845 89.55222093294921 l -9.070183420959246 -5.2020332321612415 a31.456068909411123,31.456068909411123 0 0,0 0.27342862183847,-0.46737814791194915 l 8.979295124650454 5.357390792427082" fill="#ff890c" stroke="none" /><path d="M 81.96595687620814 89.24020034530311 l -7.380435816259886 -4.4034501970630995 a29.594254271078253,29.594254271078253 0 0,0 0.2647758494779135,-0.4352218784196735 l 7.303544168495753 4.529839848689847" fill="#ff700a" stroke="none" /><path d="M 82.15384107792192 88.93136811851018 l -9.832721907146379 -6.098498823106446 a32.57039791877129,32.57039791877129 0 0,0 0.2996048598664069,-0.47390293804593275 l 9.72628945103401 6.2668494088665945" fill="#ff980e" stroke="none" /><path d="M 82.34701348167596 88.62581576622439 l -6.899976191157236 -4.445797334373008 a29.20821450602108,29.20821450602108 0 0,0 0.27595276348486586,-0.42029499081833527 l 6.822426792314451 4.56391038916901" fill="#ff6b09" stroke="none" /><path d="M 82.54541684631803 88.32363383020206 l -52.36374946104589 -35.02909850939381 a84.0,84.0 0 0,0 0.8143021373250385,-1.194887906918337 l 51.75302285805211 35.92526443958256" fill="#4dd2ff" stroke="none" /><path d="M 82.7489923806493 88.02491185347247 l -8.947060358539941 -6.210758166127953 a31.891437281529097,31.891437281529097 0 0,0 0.31692097604624925,-0.4482622453256329 l 8.838826762689814 6.363846911785372" fill="#ff8f0d" stroke="none" /><path d="M 82.95767976084542 87.72973835380427 l -6.208287948944377 -4.4698912143109855 a28.650017432972458,28.650017432972458 0 0,0 0.2915990417886854,-0.3977407652941728 l 6.130426294642058 4.576094423276662" fill="#ff6409" stroke="none" /><path d="M 83.17141714833178 87.43820079747577 l -8.230331998334023 -6.143581954848513 a31.270441277702783,31.270441277702783 0 0,0 0.3256951365353694,-0.4285766221257761 l 8.123360921574545 6.284343352855314" fill="#ff870c" stroke="none" /><path d="M 83.39014120810768 87.1503855733568 l -6.838311993165626 -5.290211888144384 a29.645741884727823,29.645741884727823 0 0,0 0.3157213904897036,-0.40093410391273393 l 6.746236522081952 5.407138386010166" fill="#ff710a" stroke="none" /><path d="M 83.6137871275137 86.86637796730984 l -4.403491653097275 -3.529418020254878 a26.64336161348865,26.64336161348865 0 0,0 0.28990706213505313,-0.3553917791806914 l 4.3420860988858285 3.6046939690436512" fill="#ff4806" stroke="none" /><path d="M 83.84228863543731 86.58626213691792 l -7.961381954510794 -6.609345108113346 a31.347320686233317,31.347320686233317 0 0,0 0.34823796246255956,-0.4122039076480672 l 7.84643337856111 6.7454079653905294" fill="#ff880c" stroke="none" /><path d="M 84.07557802195018 86.31012108654704 l -11.379661390726058 -9.78284717209019 a36.006691579427304,36.006691579427304 0 0,0 0.4080897886450879,-0.4665171738743166 l 11.209579738503127 9.97727990216745" fill="#ffc412" stroke="none" /><path d="M 84.31358615837235 86.03803664274999 l -6.15402540936738 -5.477496522319051 a29.238628337967228,29.238628337967228 0 0,0 0.33785424313674606,-0.3730670936771282 l 6.058827525614589 5.582616403265734" fill="#ff6c09" stroke="none" /><path d="M 84.5562425177563 85.77008943001954 l -3.689391155682216 -3.39941275712182 a26.0167334185612,26.0167334185612 0 0,0 0.30629460365007427,-0.32673372740026024 l 3.6303292300616836 3.4624159014001306" fill="#ff3f05" stroke="none" /><path d="M 84.80347519578584 85.50635884689758 l -4.679312906939649 -4.462881019840568 a27.466318603216607,27.466318603216607 0 0,0 0.3292501874735999,-0.3393212601001002 l 4.6017984557629354 4.542766475490792" fill="#ff5307" stroke="none" /><path d="M 85.05521093208273 85.24692304244772 l -5.765508485368231 -5.691548405099851 a29.101531419580358,29.101531419580358 0 0,0 0.35498907190488227,-0.3534646360149672 l 5.6666836132960325 5.789948891764929" fill="#ff6a09" stroke="none" /><path d="M 85.31137513191541 84.99185889309783 l -4.379523212454197 -4.474789365496075 a27.26130684713518,27.26130684713518 0 0,0 0.3381917730810465,-0.3253402177549786 l 4.301848195760723 4.549512670013363" fill="#ff5107" stroke="none" /><path d="M 85.83668400450813 84.49514656593479 l -6.205986805099764 -6.793812681821254 a30.201639146410148,30.201639146410148 0 0,0 0.3868528136655103,-0.34732027574526686 l 6.088123003838282 6.899631966335799" fill="#ff790b" stroke="none" /><path d="M 86.10567301691215 84.25364557470407 l -12.566157165672152 -14.241147824971621 a39.992593221702705,39.992593221702705 0 0,0 0.5201059627163819,-0.45103076565838085 l 12.319157404308998 14.455343584049684" fill="#fff617" stroke="none" /><path d="M 86.37877921826538 84.01681056812374 l -2.5895443756651986 -3.038580679494414 a24.99233172711587,24.99233172711587 0 0,0 0.3298303034279935,-0.2762233937092141 l 2.5368565352780945 3.0827052305974405" fill="#ff3104" stroke="none" /><path d="M 86.65592168130627 83.78471172551755 l -4.201600600627526 -5.105647863140187 a27.612192352736084,27.612192352736084 0 0,0 0.36960444897797157,-0.2988610934736546 l 4.113092753085055 5.177215053877978" fill="#ff5507" stroke="none" /><path d="M 86.93701828274178 83.55741782278169 l -2.5241158004540614 -3.1771445732752723 a25.057759013740757,25.057759013740757 0 0,0 0.3400307409322178,-0.26539938677583863 l 2.469052504362418 3.2201223492743303" fill="#ff3204" stroke="none" /><path d="M 87.22198572758235 83.33499621200491 l -5.578022416222946 -7.2748208535447905 a30.167188910841524,30.167188910841524 0 0,0 0.4148043727763208,-0.31242205377861837 l 5.4519718896882345 7.369759496829263" fill="#ff780b" stroke="none" /><path d="M 87.51073957382395 83.11751280151077 l -7.619786472632716 -10.300125322859529 a33.81224912164639,33.81224912164639 0 0,0 0.47088336286848653,-0.3421167888541369 l 7.441357793410448 10.429761346530334" fill="#ffa80f" stroke="none" /><path d="M 87.80319425747018 82.90503203632743 l -20.856486571268608 -29.232323388357194 a56.90991176233942,56.90991176233942 0 0,0 0.8023453677081086,-0.562094204594085 l 20.35021006397684 29.587002435715224" fill="#4dff2c" stroke="none" /><path d="M 88.09926311788651 82.69761687909137 l -4.623442183480378 -6.7219844273828695 a29.158510419553537,29.158510419553537 0 0,0 0.41598823046648775,-0.2808771101424249 l 4.507049258607351 6.80057344982396" fill="#ff6b09" stroke="none" /><path d="M 88.39885842347998 82.49532879139004 l -4.4253744506694535 -6.67733638306211 a29.010665403148664,29.010665403148664 0 0,0 0.4186280105282391,-0.27228730294325515 l 4.309779414356927 6.752522610164901" fill="#ff6909" stroke="none" /><path d="M 88.70189139769569 82.29822771554957 l -3.2360717432264163 -5.07024734060842 a27.014945421386233,27.014945421386233 0 0,0 0.39413627984866323,-0.24680810228310218 l 3.148316311005511 5.125199784214452" fill="#ff4d07" stroke="none" /><line stroke="#e1ed5e" stroke-width="0.3" x1="56.76296977257108" x2="54.21961505331056" y1="26.818313649435495" y2="22.513508569990535" /><path d="M 56.25429882871898 25.957352633546506 a86.0,86.0 0 0,1 42.26535254187918,-11.944610805530505" fill="none" id="id48" stroke="none" /><text fill="#e1ed5e" style="font-size:6.75px; font-family:Arial;" text-anchor="middle"><textPath startOffset="22.20632615414155" xlink:href="#id48">December</textPath></text><path d="M 89.3179101791058 81.91981866633112 l -2.516938227553821 -4.260093326570328 a25.94806762205316,25.94806762205316 0 0,0 0.3865066827804285,-0.22388961794656936 l 2.4432348123080696 4.302787101906944" fill="#ff3e05" stroke="none" /><path d="M 89.63071344664047 81.73862282372117 l -3.9165130056344104 -6.897381111386057 a28.931767792806887,28.931767792806887 0 0,0 0.4351832622051871,-0.24217901425426736 l 3.7972056543571777 6.963775523200509" fill="#ff6709" stroke="none" /><path d="M 90.26544431104013 81.39251694778311 l -3.705361409726409 -7.0827526018488065 a28.99344028536435,28.99344028536435 0 0,0 0.44420644478749627,-0.2275397940920751 l 3.582894477350149 7.145484921253386" fill="#ff6809" stroke="none" /><path d="M 90.58718382345135 81.22770947309562 l -3.6036165241015836 -7.186811584244977 a29.039671187319527,29.039671187319527 0 0,0 0.44877179508831644,-0.22021037085532855 l 3.479373462002841 7.247777115235135" fill="#ff6909" stroke="none" /><path d="M 90.91171255644093 81.06846463323043 l -1.2103281323741706 -2.5211977488318364 a23.796664491270104,23.796664491270104 0 0,0 0.37079938666364265,-0.1740952839155332 l 1.1667505344109195 2.541658015387377" fill="#ff2003" stroke="none" /><path d="M 91.90106846888425 80.62456947434976 l -3.113784563875293 -7.449243922784012 a29.073839813333095,29.073839813333095 0 0,0 0.463403959929816,-0.18903411063586376 l 2.9850967343570964 7.5017389196034525" fill="#ff6909" stroke="none" /><path d="M 92.23578459929587 80.48803036053334 l -3.4702690936825906 -8.721008073858101 a30.38609340497242,30.38609340497242 0 0,0 0.48764881082704653,-0.18920016252206381 l 3.3196371178558666 8.779450940270717" fill="#ff7b0b" stroke="none" /><path d="M 92.57280143429618 80.3572730644239 l -2.898301944387299 -7.66514496237306 a29.194791117230036,29.194791117230036 0 0,0 0.4715899591591645,-0.1736905618697013 l 2.7659296594555665 7.713898792049084" fill="#ff6b09" stroke="none" /><path d="M 92.91201910852362 80.23233633223022 l -2.771125708277732 -7.728390048034465 a29.210185772906478,29.210185772906478 0 0,0 0.47476009852131307,-0.1656344762151885 l 2.6376836056931334 7.774945377421864" fill="#ff6b09" stroke="none" /><path d="M 93.25333710446033 80.11325718540243 l -2.581726298583727 -7.610003302752931 a29.036010263103783,29.036010263103783 0 0,0 0.4746933855652014,-0.15649894590720856 l 2.450350090776116 7.653315972919373" fill="#ff6909" stroke="none" /><path d="M 93.59665428221793 80.00007090966166 l -2.4597956511204315 -7.682817821707612 a29.066987314160045,29.066987314160045 0 0,0 0.47782615200379697,-0.14846291136610268 l 2.327184126405906 7.72402086795624" fill="#ff6909" stroke="none" /><path d="M 93.94186890950719 79.89281104454417 l -2.3169750406038734 -7.690136487737715 a29.03159838007456,29.03159838007456 0 0,0 0.47972612538146414,-0.14004521095536898 l 2.184258697498988 7.728880027611782" fill="#ff6909" stroke="none" /><path d="M 94.28887869178378 79.79150937346287 l -2.149399296002572 -7.605531940542863 a28.903419097597826,28.903419097597826 0 0,0 0.4799372975230348,-0.13118499314949278 l 2.0181641092558147 7.641403474518651" fill="#ff6709" stroke="none" /></svg>